<?xml version="1.0" encoding="utf-8"?>
<!-- Generator: Adobe Illustrator 22.0.0, SVG Export Plug-In . SVG Version: 6.00 Build 0)  -->
<svg version="1.1" id="Layer_1" xmlns="http://www.w3.org/2000/svg" xmlns:xlink="http://www.w3.org/1999/xlink" x="0px" y="0px"
	 viewBox="0 0 520 800" style="enable-background:new 0 0 520 800;" xml:space="preserve">
<style type="text/css">
	.st0{fill:#F6BB42;}
	.st1{opacity:0.97;fill:#F6BB42;}
	.st2{opacity:0.97;fill:#FFCE54;}
	.st3{opacity:0.97;}
	.st4{fill:none;}
	.st5{opacity:0.68;fill:#6A3B00;}
	.st6{font-family:'AmericanTypewriter';}
	.st7{font-size:100px;}
</style>
<rect x="224" class="st0" width="72" height="800"/>
<rect x="4" y="67.7" class="st1" width="512" height="128"/>
<rect x="4" y="25" class="st2" width="512" height="128"/>
<g class="st3">
	<path class="st0" d="M78.7,89c5.9,0,10.7-4.8,10.7-10.7c0-5.9-4.8-10.7-10.7-10.7H4V89L78.7,89L78.7,89z"/>
	<path class="st0" d="M420,110.3c-31.5,0-50,13.6-60,25c-5.6,6.4-9.2,12.9-11.4,17.7h24.5c7.1-9.8,21-21.3,46.9-21.3h96v-21.3
		L420,110.3L420,110.3L420,110.3z"/>
	<rect x="4" y="259.7" class="st0" width="512" height="128"/>
</g>
<rect x="4" y="217" class="st2" width="512" height="128"/>
<g class="st3">
	<path class="st0" d="M164,270.3c31.6,0,50.1-13.6,60-25c10.7-12.2,14-24.4,14.3-25.8c0.2-0.9,0.3-1.7,0.3-2.6h-21.9
		c-1.2,3.2-3.9,8.7-8.8,14.3C197.7,243,182.9,249,164,249H4v21.3L164,270.3L164,270.3z"/>
	<path class="st0" d="M462.7,249c-5.9,0-10.7,4.8-10.7,10.7c0,5.9,4.8,10.7,10.7,10.7H516V249H462.7z"/>
	<path class="st0" d="M398.7,291.7c-5.9,0-10.7,4.8-10.7,10.7s4.8,10.7,10.7,10.7H516v-21.3H398.7z"/>
</g>
<rect x="129.3" y="59.5" class="st4" width="261.3" height="79"/>
<text transform="matrix(1 0 0 1 129.3286 127.499)" class="st5 st6 st7">Nous</text>
<text transform="matrix(1 0 0 1 30.6755 323.6701)" class="st5 st6 st7">Rejoindre</text>
</svg>
