<svg xmlns="http://www.w3.org/2000/svg" xmlns:xlink="http://www.w3.org/1999/xlink" version="1.1" x="0px" y="0px" viewBox="0 0 337.094 359.4925" enable-background="new 0 0 337.094 287.594" xml:space="preserve"><g display="none"><circle display="inline" cx="168.547" cy="83.48" r="44.812"/><path display="inline" d="M252.287,248.926c-103.601,0-74.484,0-167.48,0c0-62.752,31.966-113.623,83.74-113.623   C220.32,135.303,252.287,186.174,252.287,248.926z"/></g><g display="none"><g display="inline"><path d="M231.287,139.046c-23.197,0-42.002,18.804-42.002,42.002c0,23.194,18.805,42,42.002,42s42-18.806,42-42    C273.287,157.85,254.484,139.046,231.287,139.046z M231.287,217.333c-20.039,0-36.285-16.246-36.285-36.288    c0-20.038,16.246-36.283,36.285-36.283s36.285,16.245,36.285,36.283C267.572,201.087,251.326,217.333,231.287,217.333z"/><path d="M248.787,175.692h-12.146v-12.146c0-1.365-1.107-2.471-2.471-2.471h-5.766c-1.365,0-2.471,1.105-2.471,2.471v12.146    h-12.148c-1.363,0-2.471,1.107-2.471,2.471v5.768c0,1.363,1.107,2.471,2.471,2.471h12.148v12.146c0,1.365,1.105,2.471,2.471,2.471    h5.766c1.363,0,2.471-1.105,2.471-2.471v-12.146h12.146c1.365,0,2.471-1.107,2.471-2.471v-5.768    C251.258,176.8,250.152,175.692,248.787,175.692z"/><circle cx="147.546" cy="83.48" r="44.812"/><path d="M185.422,181.048c0-10.539,3.564-20.241,9.539-27.985c-12.898-11.243-28.887-17.76-47.415-17.76    c-51.774,0-83.74,50.871-83.74,113.623c92.996,0,63.88,0,167.481,0c0-7.545-0.467-14.916-1.371-22.049    C205.221,226.15,185.422,205.918,185.422,181.048z"/></g></g><g display="none"><g display="inline"><path d="M231.287,139.046c-23.197,0-42.002,18.804-42.002,42.002c0,23.194,18.805,42,42.002,42s42-18.806,42-42    C273.287,157.85,254.484,139.046,231.287,139.046z M231.287,217.333c-20.039,0-36.285-16.246-36.285-36.288    c0-20.038,16.246-36.283,36.285-36.283s36.285,16.245,36.285,36.283C267.572,201.087,251.326,217.333,231.287,217.333z"/><path d="M247.447,189.636l-8.589-8.589l8.589-8.589c0.966-0.966,0.964-2.53,0-3.494l-4.077-4.077    c-0.965-0.965-2.528-0.965-3.494,0l-8.589,8.589l-8.59-8.59c-0.964-0.964-2.53-0.964-3.494,0l-4.078,4.078    c-0.964,0.964-0.964,2.53,0,3.494l8.59,8.59l-8.589,8.589c-0.965,0.966-0.965,2.529,0,3.494l4.077,4.077    c0.964,0.964,2.528,0.966,3.494,0l8.589-8.589l8.589,8.589c0.966,0.966,2.53,0.964,3.494,0l4.078-4.078    C248.411,192.166,248.413,190.602,247.447,189.636z"/><circle cx="147.546" cy="83.48" r="44.812"/><path d="M185.422,181.048c0-10.539,3.564-20.241,9.539-27.985c-12.898-11.243-28.887-17.76-47.415-17.76    c-51.774,0-83.74,50.871-83.74,113.623c92.996,0,63.88,0,167.481,0c0-7.545-0.467-14.916-1.371-22.049    C205.221,226.15,185.422,205.918,185.422,181.048z"/></g></g><g display="none"><g display="inline"><path d="M231.287,139.046c-23.197,0-42.002,18.804-42.002,42.002c0,23.194,18.805,42,42.002,42s42-18.806,42-42    C273.287,157.85,254.484,139.046,231.287,139.046z M231.287,217.333c-20.039,0-36.285-16.246-36.285-36.288    c0-20.038,16.246-36.283,36.285-36.283s36.285,16.245,36.285,36.283C267.572,201.087,251.326,217.333,231.287,217.333z"/><path d="M248.787,175.692h-35.002c-1.363,0-2.471,1.107-2.471,2.471v5.768c0,1.363,1.107,2.471,2.471,2.471h35.002    c1.365,0,2.471-1.107,2.471-2.471v-5.768C251.258,176.8,250.152,175.692,248.787,175.692z"/><circle cx="147.546" cy="83.48" r="44.812"/><path d="M185.422,181.048c0-10.539,3.564-20.241,9.539-27.985c-12.898-11.243-28.887-17.76-47.415-17.76    c-51.774,0-83.74,50.871-83.74,113.623c92.996,0,63.88,0,167.481,0c0-7.545-0.467-14.916-1.371-22.049    C205.221,226.15,185.422,205.918,185.422,181.048z"/></g></g><g display="none"><g display="inline"><path d="M231.287,139.046c-23.197,0-42.002,18.804-42.002,42.002c0,23.194,18.805,42,42.002,42s42-18.806,42-42    C273.287,157.85,254.484,139.046,231.287,139.046z M231.287,217.333c-20.039,0-36.285-16.246-36.285-36.288    c0-20.038,16.246-36.283,36.285-36.283s36.285,16.245,36.285,36.283C267.572,201.087,251.326,217.333,231.287,217.333z"/><circle cx="147.546" cy="83.48" r="44.812"/><path d="M185.422,181.048c0-10.539,3.564-20.241,9.539-27.985c-12.898-11.243-28.887-17.76-47.415-17.76    c-51.774,0-83.74,50.871-83.74,113.623c92.996,0,63.88,0,167.481,0c0-7.545-0.467-14.916-1.371-22.049    C205.221,226.15,185.422,205.918,185.422,181.048z"/><path d="M255.067,171.218l-0.744-1.176c-1.227-1.944-3.12-2.954-4.227-2.257l-24.111,15.238l-13.476-9.686    c-0.715-0.514-2.383,0.584-3.725,2.451l-0.812,1.13c-1.342,1.867-1.851,3.798-1.138,4.312l18.33,13.171    c0.445,0.321,1.263,0.015,2.141-0.716l27.983-17.683C256.396,175.305,256.295,173.162,255.067,171.218z"/></g></g><g display="none"><g display="inline"><path d="M231.287,139.046c-23.197,0-42.002,18.804-42.002,42.002c0,23.194,18.805,42,42.002,42s42-18.806,42-42    C273.287,157.85,254.484,139.046,231.287,139.046z M231.287,217.333c-20.039,0-36.285-16.246-36.285-36.288    c0-20.038,16.246-36.283,36.285-36.283s36.285,16.245,36.285,36.283C267.572,201.087,251.326,217.333,231.287,217.333z"/><circle cx="147.546" cy="83.48" r="44.812"/><path d="M185.422,181.048c0-10.539,3.564-20.241,9.539-27.985c-12.898-11.243-28.887-17.76-47.415-17.76    c-51.774,0-83.74,50.871-83.74,113.623c92.996,0,63.88,0,167.481,0c0-7.545-0.467-14.916-1.371-22.049    C205.221,226.15,185.422,205.918,185.422,181.048z"/><path d="M239.634,160.373c-3.179,0-6.09,1.146-8.347,3.044c-2.258-1.897-5.167-3.044-8.348-3.044    c-7.172,0-12.985,5.814-12.985,12.987c0,2.842,0.924,5.465,2.475,7.604h-0.006l0.027,0.031c0.555,0.759,1.188,1.455,1.889,2.077    l16.95,18.648l16.954-18.656c0.697-0.62,1.327-1.312,1.878-2.067l0.031-0.033h-0.006c1.551-2.139,2.475-4.762,2.475-7.605    C252.621,166.186,246.807,160.373,239.634,160.373z"/></g></g><g display="none"><g display="inline"><path d="M231.287,139.046c-23.197,0-42.002,18.804-42.002,42.002c0,23.194,18.805,42,42.002,42s42-18.806,42-42    C273.287,157.85,254.484,139.046,231.287,139.046z M231.287,217.333c-20.039,0-36.285-16.246-36.285-36.288    c0-20.038,16.246-36.283,36.285-36.283s36.285,16.245,36.285,36.283C267.572,201.087,251.326,217.333,231.287,217.333z"/><circle cx="147.546" cy="83.48" r="44.812"/><path d="M185.422,181.048c0-10.539,3.564-20.241,9.539-27.985c-12.898-11.243-28.887-17.76-47.415-17.76    c-51.774,0-83.74,50.871-83.74,113.623c92.996,0,63.88,0,167.481,0c0-7.545-0.467-14.916-1.371-22.049    C205.221,226.15,185.422,205.918,185.422,181.048z"/><polygon points="238.357,171.972 231.286,157.643 224.215,171.972 208.402,174.269 219.844,185.423 217.144,201.172     231.286,193.736 245.429,201.172 242.729,185.423 254.17,174.269   "/></g></g><g display="none"><g display="inline"><path d="M231.287,139.046c-23.197,0-42.002,18.804-42.002,42.002c0,23.194,18.805,42,42.002,42s42-18.806,42-42    C273.287,157.85,254.484,139.046,231.287,139.046z M231.287,217.333c-20.039,0-36.285-16.246-36.285-36.288    c0-20.038,16.246-36.283,36.285-36.283s36.285,16.245,36.285,36.283C267.572,201.087,251.326,217.333,231.287,217.333z"/><circle cx="147.546" cy="83.48" r="44.812"/><path d="M185.422,181.048c0-10.539,3.564-20.241,9.539-27.985c-12.898-11.243-28.887-17.76-47.415-17.76    c-51.774,0-83.74,50.871-83.74,113.623c92.996,0,63.88,0,167.481,0c0-7.545-0.467-14.916-1.371-22.049    C205.221,226.15,185.422,205.918,185.422,181.048z"/><path d="M250.412,160.238c-1.045-1.165-2.835-1.261-3.996-0.216l-4.206,3.783l9.154,10.178l4.204-3.783    c1.163-1.044,1.256-2.834,0.21-3.996L250.412,160.238z"/><polygon points="209.088,202.796 210.598,202.478 209.565,201.331   "/><polygon points="213.425,189.692 213.343,189.767 213.335,189.757 209.724,200.845 211.097,202.373 222.505,199.956     222.497,199.944 222.578,199.869   "/><rect x="225.528" y="164.357" transform="matrix(-0.6686 -0.7436 0.7436 -0.6686 252.5126 476.2433)" width="13.688" height="35"/></g></g><g display="none"><g display="inline"><path d="M231.287,139.046c-23.197,0-42.002,18.804-42.002,42.002c0,23.194,18.805,42,42.002,42s42-18.806,42-42    C273.287,157.85,254.484,139.046,231.287,139.046z M231.287,217.333c-20.039,0-36.285-16.246-36.285-36.288    c0-20.038,16.246-36.283,36.285-36.283s36.285,16.245,36.285,36.283C267.572,201.087,251.326,217.333,231.287,217.333z"/><circle cx="147.546" cy="83.48" r="44.812"/><path d="M185.422,181.048c0-10.539,3.564-20.241,9.539-27.985c-12.898-11.243-28.887-17.76-47.415-17.76    c-51.774,0-83.74,50.871-83.74,113.623c92.996,0,63.88,0,167.481,0c0-7.545-0.467-14.916-1.371-22.049    C205.221,226.15,185.422,205.918,185.422,181.048z"/><path d="M246.437,172.528l2.856-4.979l-2.836-2.835l-0.985-0.987l-0.686-0.684l-4.977,2.855c-1.199-0.675-2.483-1.209-3.835-1.589    l-1.501-5.539h-0.97h-4.435h-0.968l-1.501,5.539c-1.352,0.378-2.635,0.912-3.832,1.589l-4.978-2.856l-0.685,0.684h-0.002    l-3.137,3.137l0.002,0.001l-0.686,0.686l2.857,4.977c-0.677,1.198-1.213,2.48-1.589,3.834l-5.541,1.501v0.969v4.436v0.968    l5.541,1.501c0.376,1.352,0.912,2.634,1.589,3.833l-2.857,4.979l4.506,4.506l4.979-2.855c1.197,0.674,2.48,1.208,3.832,1.586    l1.501,5.541h0.968h4.435h0.97l1.501-5.541c1.352-0.378,2.634-0.912,3.832-1.589l4.981,2.858l4.505-4.506l-2.856-4.981    c0.675-1.196,1.21-2.479,1.586-3.83l5.541-1.501v-0.968v-4.436v-0.969l-5.541-1.501    C247.646,175.009,247.111,173.726,246.437,172.528z M231.287,189.013c-4.398,0-7.965-3.567-7.965-7.966s3.566-7.965,7.965-7.965    c4.399,0,7.966,3.566,7.966,7.965S235.687,189.013,231.287,189.013z"/></g></g><g display="none"><g display="inline"><path d="M231.287,139.046c-23.197,0-42.002,18.804-42.002,42.002c0,23.194,18.805,42,42.002,42s42-18.806,42-42    C273.287,157.85,254.484,139.046,231.287,139.046z M231.287,217.333c-20.039,0-36.285-16.246-36.285-36.288    c0-20.038,16.246-36.283,36.285-36.283s36.285,16.245,36.285,36.283C267.572,201.087,251.326,217.333,231.287,217.333z"/><circle cx="147.546" cy="83.48" r="44.812"/><path d="M185.422,181.048c0-10.539,3.564-20.241,9.539-27.985c-12.898-11.243-28.887-17.76-47.415-17.76    c-51.774,0-83.74,50.871-83.74,113.623c92.996,0,63.88,0,167.481,0c0-7.545-0.467-14.916-1.371-22.049    C205.221,226.15,185.422,205.918,185.422,181.048z"/><path d="M246.374,174.665h-3.76v-4.567c0-6.255-5.072-11.327-11.326-11.327c-6.256,0-11.327,5.072-11.327,11.327v4.567h-3.759    c-1.096,0-1.982,0.891-1.982,1.986v24.685c0,1.097,0.887,1.986,1.982,1.986h30.172c1.096,0,1.982-0.89,1.982-1.986v-24.685    C248.356,175.556,247.47,174.665,246.374,174.665z M226.095,196.246l3.173-7.122c-1.252-0.708-2.107-2.036-2.107-3.579    c0-2.278,1.848-4.127,4.128-4.127c2.279,0,4.127,1.849,4.127,4.127c0,1.543-0.856,2.871-2.106,3.579l3.171,7.122H226.095z     M239.593,174.665h-16.609v-4.567c0-4.587,3.718-8.305,8.305-8.305c4.586,0,8.305,3.718,8.305,8.305V174.665z"/></g></g><g display="none"><g display="inline"><circle cx="147.546" cy="83.48" r="44.812"/><path d="M185.422,181.048c0-10.539,3.564-20.241,9.539-27.985c-12.898-11.243-28.887-17.76-47.415-17.76    c-51.774,0-83.74,50.871-83.74,113.623c92.996,0,63.88,0,167.481,0c0-7.545-0.467-14.916-1.371-22.049    C205.221,226.15,185.422,205.918,185.422,181.048z"/><path d="M231.286,139.046c-23.197,0-42.002,18.803-42.002,42c0,23.194,18.805,42.001,42.002,42.001s42.001-18.807,42.001-42.001    C273.287,157.85,254.483,139.046,231.286,139.046z M231.286,144.762c11.196,0,21.206,5.075,27.863,13.046l-60.084,39.918    c-2.591-4.997-4.065-10.664-4.065-16.683C195,161.007,211.247,144.762,231.286,144.762z M231.286,217.331    c-11.196,0-21.205-5.073-27.862-13.046l60.084-39.917c2.59,4.994,4.064,10.66,4.064,16.676    C267.572,201.086,251.325,217.331,231.286,217.331z"/></g></g><g display="none"><g display="inline"><path d="M231.287,139.046c-23.197,0-42.002,18.804-42.002,42.002c0,23.194,18.805,42,42.002,42s42-18.806,42-42    C273.287,157.85,254.484,139.046,231.287,139.046z M231.287,217.333c-20.039,0-36.285-16.246-36.285-36.288    c0-20.038,16.246-36.283,36.285-36.283s36.285,16.245,36.285,36.283C267.572,201.087,251.326,217.333,231.287,217.333z"/><circle cx="147.546" cy="83.48" r="44.812"/><path d="M185.422,181.048c0-10.539,3.564-20.241,9.539-27.985c-12.898-11.243-28.887-17.76-47.415-17.76    c-51.774,0-83.74,50.871-83.74,113.623c92.996,0,63.88,0,167.481,0c0-7.545-0.467-14.916-1.371-22.049    C205.221,226.15,185.422,205.918,185.422,181.048z"/><path d="M232.347,163.635c-12.483,0-22.6,7.395-22.6,16.517c0,2.513,0.79,4.886,2.164,7.017    c-0.742,3.458-1.992,7.809-3.905,10.103c-2.316,2.783,6.559,0.21,12.74-2.964c3.393,1.488,7.354,2.36,11.601,2.36    c12.481,0,22.6-7.396,22.6-16.516C254.946,171.029,244.828,163.635,232.347,163.635z M224.007,183.327    c-1.26,0-2.281-1.021-2.281-2.281c0-1.26,1.021-2.281,2.281-2.281c1.261,0,2.283,1.021,2.283,2.281    C226.29,182.307,225.268,183.327,224.007,183.327z M231.288,183.327c-1.261,0-2.281-1.021-2.281-2.281    c0-1.26,1.021-2.281,2.281-2.281c1.262,0,2.281,1.021,2.281,2.281C233.569,182.307,232.55,183.327,231.288,183.327z     M238.569,183.327c-1.261,0-2.282-1.021-2.282-2.281c0-1.26,1.021-2.281,2.282-2.281c1.26,0,2.282,1.021,2.282,2.281    C240.852,182.307,239.829,183.327,238.569,183.327z"/></g></g><g display="none"><g display="inline"><path d="M231.287,139.046c-23.197,0-42.002,18.804-42.002,42.002c0,23.194,18.805,42,42.002,42s42-18.806,42-42    C273.287,157.85,254.484,139.046,231.287,139.046z M231.287,217.333c-20.039,0-36.285-16.246-36.285-36.288    c0-20.038,16.246-36.283,36.285-36.283s36.285,16.245,36.285,36.283C267.572,201.087,251.326,217.333,231.287,217.333z"/><circle cx="147.546" cy="83.48" r="44.812"/><path d="M185.422,181.048c0-10.539,3.564-20.241,9.539-27.985c-12.898-11.243-28.887-17.76-47.415-17.76    c-51.774,0-83.74,50.871-83.74,113.623c92.996,0,63.88,0,167.481,0c0-7.545-0.467-14.916-1.371-22.049    C205.221,226.15,185.422,205.918,185.422,181.048z"/><path d="M251.65,164.738c-0.1-0.115-0.191-0.236-0.304-0.342l-5.577-5.125c-1.452-1.331-3.706-1.235-5.037,0.214l-5.123,5.576    c-1.334,1.449-1.237,3.704,0.213,5.034l5.575,5.125c0.12,0.111,0.253,0.195,0.384,0.287c-2.049,2.714-4.475,5.632-7.188,8.585    c-2.713,2.953-5.415,5.618-7.946,7.889c-0.102-0.122-0.199-0.247-0.319-0.357l-5.578-5.125c-1.447-1.332-3.703-1.235-5.034,0.216    l-5.124,5.573c-1.332,1.45-1.238,3.706,0.213,5.036l5.576,5.127c0.116,0.104,0.243,0.187,0.368,0.272    c0.066,0.078,0.117,0.171,0.189,0.238c3.335,3.062,13.864-2.973,23.521-13.481c9.655-10.509,14.779-21.509,11.444-24.571    C251.828,164.84,251.734,164.799,251.65,164.738z"/></g></g><g display="none"><g display="inline"><path d="M231.287,139.046c-23.197,0-42.002,18.804-42.002,42.002c0,23.194,18.805,42,42.002,42s42-18.806,42-42    C273.287,157.85,254.484,139.046,231.287,139.046z M231.287,217.333c-20.039,0-36.285-16.246-36.285-36.288    c0-20.038,16.246-36.283,36.285-36.283s36.285,16.245,36.285,36.283C267.572,201.087,251.326,217.333,231.287,217.333z"/><circle cx="147.546" cy="83.48" r="44.812"/><path d="M185.422,181.048c0-10.539,3.564-20.241,9.539-27.985c-12.898-11.243-28.887-17.76-47.415-17.76    c-51.774,0-83.74,50.871-83.74,113.623c92.996,0,63.88,0,167.481,0c0-7.545-0.467-14.916-1.371-22.049    C205.221,226.15,185.422,205.918,185.422,181.048z"/><path d="M244.184,169.986c0-1.376-1.118-2.495-2.497-2.495h-29.541c-1.378,0-2.495,1.119-2.495,2.495v22.116    c0,1.38,1.117,2.498,2.495,2.498h29.541c1.379,0,2.497-1.118,2.497-2.498v-6.122l8.737,3.869v-19.337l-8.737,3.867V169.986z     M237.267,175.92c-1.294,0-2.341-1.049-2.341-2.344c0-1.291,1.047-2.34,2.341-2.34c1.293,0,2.341,1.049,2.341,2.34    C239.607,174.871,238.56,175.92,237.267,175.92z"/></g></g><g display="none"><g display="inline"><path d="M231.287,139.046c-23.197,0-42.002,18.804-42.002,42.002c0,23.194,18.805,42,42.002,42s42-18.806,42-42    C273.287,157.85,254.484,139.046,231.287,139.046z M231.287,217.333c-20.039,0-36.285-16.246-36.285-36.288    c0-20.038,16.246-36.283,36.285-36.283s36.285,16.245,36.285,36.283C267.572,201.087,251.326,217.333,231.287,217.333z"/><circle cx="147.546" cy="83.48" r="44.812"/><path d="M185.422,181.048c0-10.539,3.564-20.241,9.539-27.985c-12.898-11.243-28.887-17.76-47.415-17.76    c-51.774,0-83.74,50.871-83.74,113.623c92.996,0,63.88,0,167.481,0c0-7.545-0.467-14.916-1.371-22.049    C205.221,226.15,185.422,205.918,185.422,181.048z"/><path d="M236.99,183.431c-0.213-0.174-0.46-0.28-0.715-0.321l0.687-0.844c0.375-0.462,0.306-1.139-0.155-1.514    c-0.319-0.259-0.739-0.301-1.094-0.152c2.026-5.1,0.626-11.129-3.856-14.772c-5.529-4.493-13.655-3.654-18.147,1.877    c-4.493,5.528-3.652,13.653,1.875,18.146c4.484,3.642,10.674,3.779,15.249,0.753c-0.071,0.376,0.055,0.779,0.373,1.039    c0.462,0.374,1.138,0.304,1.514-0.154l0.686-0.846c0.093,0.24,0.247,0.459,0.462,0.634l12.543,10.245l3.127-3.847L236.99,183.431z     M231.61,182.25c-3.541,4.358-9.943,5.021-14.302,1.479c-4.358-3.542-5.019-9.944-1.479-14.303    c3.541-4.357,9.944-5.02,14.302-1.479C234.49,171.49,235.152,177.893,231.61,182.25z"/><path d="M250.447,194.364l-3.126,3.846l0.741,0.602c0.658,0.535,1.62,0.435,2.153-0.222l1.195-1.47    c0.533-0.656,0.433-1.619-0.222-2.152L250.447,194.364z"/></g></g><g display="none"><g display="inline"><path d="M231.287,139.046c-23.197,0-42.002,18.804-42.002,42.002c0,23.194,18.805,42,42.002,42s42-18.806,42-42    C273.287,157.85,254.484,139.046,231.287,139.046z M231.287,217.333c-20.039,0-36.285-16.246-36.285-36.288    c0-20.038,16.246-36.283,36.285-36.283s36.285,16.245,36.285,36.283C267.572,201.087,251.326,217.333,231.287,217.333z"/><circle cx="147.546" cy="83.48" r="44.812"/><path d="M185.422,181.048c0-10.539,3.564-20.241,9.539-27.985c-12.898-11.243-28.887-17.76-47.415-17.76    c-51.774,0-83.74,50.871-83.74,113.623c92.996,0,63.88,0,167.481,0c0-7.545-0.467-14.916-1.371-22.049    C205.221,226.15,185.422,205.918,185.422,181.048z"/><path d="M251.601,168.434l-20.313,12.612L210.8,168.469c-1.211,0.092-2.173,1.077-2.173,2.313v20.532    c0,1.296,1.049,2.346,2.346,2.346h40.628c1.298,0,2.347-1.05,2.347-2.346v-20.532    C253.947,169.484,252.898,168.434,251.601,168.434z"/><polygon points="248.882,168.434 213.49,168.434 231.287,179.359   "/></g></g><g display="none"><g display="inline"><circle cx="168.547" cy="83.48" r="44.812"/><path d="M168.547,135.303c-51.774,0-83.74,50.871-83.74,113.623c92.996,0,63.88,0,167.48,0    C252.287,186.174,220.32,135.303,168.547,135.303z"/><path d="M218.797,83.48c0,3.86-0.445,7.614-1.27,11.224c7.623,6,17.232,9.589,27.686,9.589c24.75,0,44.812-20.062,44.812-44.812    c0-24.75-20.062-44.812-44.812-44.812c-20.167,0-37.22,13.324-42.844,31.649C212.462,55.509,218.797,68.754,218.797,83.48z"/><path d="M245.213,111.304c-20.974,0-38.695,8.35-52.359,22.455c22.639,7.537,40.481,25.501,51.42,49.14    c6.366,13.758,9.737,29.098,11.517,42.028c14.88,0,35.025,0,73.163,0C328.953,162.175,296.986,111.304,245.213,111.304z"/><path d="M91.879,104.293c10.454,0,20.063-3.589,27.687-9.589c-0.824-3.609-1.269-7.364-1.269-11.223    c0-14.726,6.335-27.971,16.427-37.161c-5.623-18.326-22.675-31.65-42.844-31.65c-24.748,0-44.812,20.063-44.812,44.812    C47.067,84.23,67.131,104.293,91.879,104.293z"/><path d="M144.188,133.708c-13.657-14.074-31.361-22.404-52.309-22.404c-51.773,0-83.74,50.871-83.74,113.623    c40.398,0,57.751,0,72.952,0c1.778-12.931,5.15-28.271,11.516-42.028C103.572,159.204,121.474,141.212,144.188,133.708z"/></g></g><g><g><circle cx="168.547" cy="83.48" r="44.812"/><path d="M237.284,180.962c-14.229-27.717-37.99-45.659-68.737-45.659c-51.774,0-83.74,50.871-83.74,113.623    c78.168,0,70.071,0,127.023,0c-4.466-7.041-7.062-15.385-7.062-24.34C204.768,203.967,218.482,186.559,237.284,180.962z"/><path d="M218.797,83.48c0,3.86-0.445,7.614-1.27,11.224c7.623,6,17.232,9.589,27.686,9.589c24.75,0,44.812-20.062,44.812-44.812    c0-24.75-20.062-44.812-44.812-44.812c-20.167,0-37.22,13.324-42.844,31.649C212.462,55.509,218.797,68.754,218.797,83.48z"/><path d="M328.953,224.927c0-62.752-31.967-113.623-83.74-113.623c-20.974,0-38.695,8.35-52.359,22.455    c21.605,7.193,38.838,23.888,49.875,45.945c2.459-0.411,4.982-0.637,7.559-0.637c25.139,0,45.52,20.381,45.52,45.52    c0,0.114-0.008,0.227-0.009,0.341C305.104,224.927,315.987,224.927,328.953,224.927z"/><path d="M91.879,104.293c10.454,0,20.063-3.589,27.687-9.589c-0.824-3.609-1.269-7.364-1.269-11.223    c0-14.726,6.335-27.971,16.427-37.161c-5.623-18.326-22.675-31.65-42.844-31.65c-24.748,0-44.812,20.063-44.812,44.812    C47.067,84.23,67.131,104.293,91.879,104.293z"/><path d="M144.188,133.708c-13.657-14.074-31.361-22.404-52.309-22.404c-51.773,0-83.74,50.871-83.74,113.623    c40.398,0,57.751,0,72.952,0c1.778-12.931,5.15-28.271,11.516-42.028C103.572,159.204,121.474,141.212,144.188,133.708z"/><path d="M250.288,182.585c-23.197,0-42.002,18.804-42.002,42.002c0,23.194,18.805,42,42.002,42s42-18.806,42-42    C292.288,201.389,273.485,182.585,250.288,182.585z M250.288,260.872c-20.039,0-36.285-16.246-36.285-36.288    c0-20.038,16.246-36.283,36.285-36.283s36.285,16.245,36.285,36.283C286.573,244.626,270.327,260.872,250.288,260.872z"/><path d="M267.788,219.231h-12.146v-12.146c0-1.365-1.107-2.471-2.471-2.471h-5.766c-1.365,0-2.471,1.105-2.471,2.471v12.146    h-12.148c-1.363,0-2.471,1.107-2.471,2.471v5.768c0,1.363,1.107,2.471,2.471,2.471h12.148v12.146c0,1.365,1.105,2.471,2.471,2.471    h5.766c1.363,0,2.471-1.105,2.471-2.471V229.94h12.146c1.365,0,2.471-1.107,2.471-2.471v-5.768    C270.259,220.339,269.153,219.231,267.788,219.231z"/></g></g><g display="none"><g display="inline"><circle cx="168.547" cy="83.48" r="44.812"/><path d="M237.284,180.962c-14.229-27.717-37.99-45.659-68.737-45.659c-51.774,0-83.74,50.871-83.74,113.623    c78.168,0,70.071,0,127.023,0c-4.466-7.041-7.062-15.385-7.062-24.34C204.768,203.967,218.482,186.559,237.284,180.962z"/><path d="M218.797,83.48c0,3.86-0.445,7.614-1.27,11.224c7.623,6,17.232,9.589,27.686,9.589c24.75,0,44.812-20.062,44.812-44.812    c0-24.75-20.062-44.812-44.812-44.812c-20.167,0-37.22,13.324-42.844,31.649C212.462,55.509,218.797,68.754,218.797,83.48z"/><path d="M328.953,224.927c0-62.752-31.967-113.623-83.74-113.623c-20.974,0-38.695,8.35-52.359,22.455    c21.605,7.193,38.838,23.888,49.875,45.945c2.459-0.411,4.982-0.637,7.559-0.637c25.139,0,45.52,20.381,45.52,45.52    c0,0.114-0.008,0.227-0.009,0.341C305.104,224.927,315.987,224.927,328.953,224.927z"/><path d="M91.879,104.293c10.454,0,20.063-3.589,27.687-9.589c-0.824-3.609-1.269-7.364-1.269-11.223    c0-14.726,6.335-27.971,16.427-37.161c-5.623-18.326-22.675-31.65-42.844-31.65c-24.748,0-44.812,20.063-44.812,44.812    C47.067,84.23,67.131,104.293,91.879,104.293z"/><path d="M144.188,133.708c-13.657-14.074-31.361-22.404-52.309-22.404c-51.773,0-83.74,50.871-83.74,113.623    c40.398,0,57.751,0,72.952,0c1.778-12.931,5.15-28.271,11.516-42.028C103.572,159.204,121.474,141.212,144.188,133.708z"/><path d="M250.288,182.585c-23.197,0-42.002,18.804-42.002,42.002c0,23.194,18.805,42,42.002,42s42-18.806,42-42    C292.288,201.389,273.485,182.585,250.288,182.585z M250.288,260.872c-20.039,0-36.285-16.246-36.285-36.288    c0-20.038,16.246-36.283,36.285-36.283s36.285,16.245,36.285,36.283C286.573,244.626,270.327,260.872,250.288,260.872z"/><path d="M266.448,233.175l-8.589-8.589l8.589-8.589c0.966-0.966,0.964-2.53,0-3.494l-4.077-4.077    c-0.965-0.965-2.528-0.965-3.494,0l-8.589,8.589l-8.59-8.59c-0.964-0.964-2.53-0.964-3.494,0l-4.078,4.078    c-0.964,0.964-0.964,2.53,0,3.494l8.59,8.59l-8.589,8.589c-0.965,0.966-0.965,2.529,0,3.494l4.077,4.077    c0.964,0.964,2.528,0.966,3.494,0l8.589-8.589l8.589,8.589c0.966,0.966,2.53,0.964,3.494,0l4.078-4.078    C267.412,235.705,267.414,234.141,266.448,233.175z"/></g></g><g display="none"><g display="inline"><circle cx="168.547" cy="83.48" r="44.812"/><path d="M237.284,180.962c-14.229-27.717-37.99-45.659-68.737-45.659c-51.774,0-83.74,50.871-83.74,113.623    c78.168,0,70.071,0,127.023,0c-4.466-7.041-7.062-15.385-7.062-24.34C204.768,203.967,218.482,186.559,237.284,180.962z"/><path d="M218.797,83.48c0,3.86-0.445,7.614-1.27,11.224c7.623,6,17.232,9.589,27.686,9.589c24.75,0,44.812-20.062,44.812-44.812    c0-24.75-20.062-44.812-44.812-44.812c-20.167,0-37.22,13.324-42.844,31.649C212.462,55.509,218.797,68.754,218.797,83.48z"/><path d="M328.953,224.927c0-62.752-31.967-113.623-83.74-113.623c-20.974,0-38.695,8.35-52.359,22.455    c21.605,7.193,38.838,23.888,49.875,45.945c2.459-0.411,4.982-0.637,7.559-0.637c25.139,0,45.52,20.381,45.52,45.52    c0,0.114-0.008,0.227-0.009,0.341C305.104,224.927,315.987,224.927,328.953,224.927z"/><path d="M91.879,104.293c10.454,0,20.063-3.589,27.687-9.589c-0.824-3.609-1.269-7.364-1.269-11.223    c0-14.726,6.335-27.971,16.427-37.161c-5.623-18.326-22.675-31.65-42.844-31.65c-24.748,0-44.812,20.063-44.812,44.812    C47.067,84.23,67.131,104.293,91.879,104.293z"/><path d="M144.188,133.708c-13.657-14.074-31.361-22.404-52.309-22.404c-51.773,0-83.74,50.871-83.74,113.623    c40.398,0,57.751,0,72.952,0c1.778-12.931,5.15-28.271,11.516-42.028C103.572,159.204,121.474,141.212,144.188,133.708z"/><path d="M250.288,182.585c-23.197,0-42.002,18.804-42.002,42.002c0,23.194,18.805,42,42.002,42s42-18.806,42-42    C292.288,201.389,273.485,182.585,250.288,182.585z M250.288,260.872c-20.039,0-36.285-16.246-36.285-36.288    c0-20.038,16.246-36.283,36.285-36.283s36.285,16.245,36.285,36.283C286.573,244.626,270.327,260.872,250.288,260.872z"/><path d="M267.787,229.94c1.366,0,2.471-1.107,2.471-2.471v-5.766c0-1.364-1.105-2.47-2.471-2.471h-35.002    c-1.365,0.001-2.471,1.106-2.471,2.471v5.766c0,1.363,1.105,2.471,2.471,2.471H267.787z"/></g></g><g display="none"><g display="inline"><path d="M273.324,213.581c-1.227-1.944-3.12-2.954-4.227-2.257l-24.111,15.238l-13.476-9.686    c-0.715-0.514-2.383,0.584-3.725,2.451l-0.812,1.13c-1.342,1.867-1.851,3.798-1.138,4.312l18.33,13.171    c0.445,0.321,1.263,0.015,2.141-0.716l27.983-17.683c1.105-0.699,1.005-2.842-0.223-4.786L273.324,213.581z"/><circle cx="168.547" cy="83.48" r="44.812"/><path d="M237.284,180.962c-14.229-27.717-37.99-45.659-68.737-45.659c-51.774,0-83.74,50.871-83.74,113.623    c78.168,0,70.071,0,127.023,0c-4.466-7.041-7.062-15.385-7.062-24.34C204.768,203.967,218.482,186.559,237.284,180.962z"/><path d="M218.797,83.48c0,3.86-0.445,7.614-1.27,11.224c7.623,6,17.232,9.589,27.686,9.589c24.75,0,44.812-20.062,44.812-44.812    c0-24.75-20.062-44.812-44.812-44.812c-20.167,0-37.22,13.324-42.844,31.649C212.462,55.509,218.797,68.754,218.797,83.48z"/><path d="M328.953,224.927c0-62.752-31.967-113.623-83.74-113.623c-20.974,0-38.695,8.35-52.359,22.455    c21.605,7.193,38.838,23.888,49.875,45.945c2.459-0.411,4.982-0.637,7.559-0.637c25.139,0,45.52,20.381,45.52,45.52    c0,0.114-0.008,0.227-0.009,0.341C305.104,224.927,315.987,224.927,328.953,224.927z"/><path d="M91.879,104.293c10.454,0,20.063-3.589,27.687-9.589c-0.824-3.609-1.269-7.364-1.269-11.223    c0-14.726,6.335-27.971,16.427-37.161c-5.623-18.326-22.675-31.65-42.844-31.65c-24.748,0-44.812,20.063-44.812,44.812    C47.067,84.23,67.131,104.293,91.879,104.293z"/><path d="M144.188,133.708c-13.657-14.074-31.361-22.404-52.309-22.404c-51.773,0-83.74,50.871-83.74,113.623    c40.398,0,57.751,0,72.952,0c1.778-12.931,5.15-28.271,11.516-42.028C103.572,159.204,121.474,141.212,144.188,133.708z"/><path d="M250.288,182.585c-23.197,0-42.002,18.804-42.002,42.002c0,23.194,18.805,42,42.002,42s42-18.806,42-42    C292.288,201.389,273.485,182.585,250.288,182.585z M250.288,260.872c-20.039,0-36.285-16.246-36.285-36.288    c0-20.038,16.246-36.283,36.285-36.283s36.285,16.245,36.285,36.283C286.573,244.626,270.327,260.872,250.288,260.872z"/></g></g><g display="none"><g display="inline"><circle cx="168.547" cy="83.48" r="44.812"/><path d="M237.284,180.962c-14.229-27.717-37.99-45.659-68.737-45.659c-51.774,0-83.74,50.871-83.74,113.623    c78.168,0,70.071,0,127.023,0c-4.466-7.041-7.062-15.385-7.062-24.34C204.768,203.967,218.482,186.559,237.284,180.962z"/><path d="M218.797,83.48c0,3.86-0.445,7.614-1.27,11.224c7.623,6,17.232,9.589,27.686,9.589c24.75,0,44.812-20.062,44.812-44.812    c0-24.75-20.062-44.812-44.812-44.812c-20.167,0-37.22,13.324-42.844,31.649C212.462,55.509,218.797,68.754,218.797,83.48z"/><path d="M328.953,224.927c0-62.752-31.967-113.623-83.74-113.623c-20.974,0-38.695,8.35-52.359,22.455    c21.605,7.193,38.838,23.888,49.875,45.945c2.459-0.411,4.982-0.637,7.559-0.637c25.139,0,45.52,20.381,45.52,45.52    c0,0.114-0.008,0.227-0.009,0.341C305.104,224.927,315.987,224.927,328.953,224.927z"/><path d="M91.879,104.293c10.454,0,20.063-3.589,27.687-9.589c-0.824-3.609-1.269-7.364-1.269-11.223    c0-14.726,6.335-27.971,16.427-37.161c-5.623-18.326-22.675-31.65-42.844-31.65c-24.748,0-44.812,20.063-44.812,44.812    C47.067,84.23,67.131,104.293,91.879,104.293z"/><path d="M144.188,133.708c-13.657-14.074-31.361-22.404-52.309-22.404c-51.773,0-83.74,50.871-83.74,113.623    c40.398,0,57.751,0,72.952,0c1.778-12.931,5.15-28.271,11.516-42.028C103.572,159.204,121.474,141.212,144.188,133.708z"/><path d="M250.288,182.585c-23.197,0-42.002,18.804-42.002,42.002c0,23.194,18.805,42,42.002,42s42-18.806,42-42    C292.288,201.389,273.485,182.585,250.288,182.585z M250.288,260.872c-20.039,0-36.285-16.246-36.285-36.288    c0-20.038,16.246-36.283,36.285-36.283s36.285,16.245,36.285,36.283C286.573,244.626,270.327,260.872,250.288,260.872z"/><path d="M258.633,203.912c-3.179,0-6.09,1.146-8.347,3.044c-2.258-1.897-5.167-3.044-8.348-3.044    c-7.172,0-12.985,5.814-12.985,12.987c0,2.842,0.924,5.465,2.475,7.604h-0.006l0.027,0.031c0.555,0.759,1.188,1.455,1.889,2.077    l16.95,18.648l16.954-18.656c0.697-0.62,1.327-1.312,1.878-2.067l0.031-0.033h-0.006c1.551-2.139,2.475-4.762,2.475-7.605    C271.62,209.725,265.806,203.912,258.633,203.912z"/></g></g><g display="none"><g display="inline"><circle cx="168.547" cy="83.48" r="44.812"/><path d="M237.284,180.962c-14.229-27.717-37.99-45.659-68.737-45.659c-51.774,0-83.74,50.871-83.74,113.623    c78.168,0,70.071,0,127.023,0c-4.466-7.041-7.062-15.385-7.062-24.34C204.768,203.967,218.482,186.559,237.284,180.962z"/><path d="M218.797,83.48c0,3.86-0.445,7.614-1.27,11.224c7.623,6,17.232,9.589,27.686,9.589c24.75,0,44.812-20.062,44.812-44.812    c0-24.75-20.062-44.812-44.812-44.812c-20.167,0-37.22,13.324-42.844,31.649C212.462,55.509,218.797,68.754,218.797,83.48z"/><path d="M328.953,224.927c0-62.752-31.967-113.623-83.74-113.623c-20.974,0-38.695,8.35-52.359,22.455    c21.605,7.193,38.838,23.888,49.875,45.945c2.459-0.411,4.982-0.637,7.559-0.637c25.139,0,45.52,20.381,45.52,45.52    c0,0.114-0.008,0.227-0.009,0.341C305.104,224.927,315.987,224.927,328.953,224.927z"/><path d="M91.879,104.293c10.454,0,20.063-3.589,27.687-9.589c-0.824-3.609-1.269-7.364-1.269-11.223    c0-14.726,6.335-27.971,16.427-37.161c-5.623-18.326-22.675-31.65-42.844-31.65c-24.748,0-44.812,20.063-44.812,44.812    C47.067,84.23,67.131,104.293,91.879,104.293z"/><path d="M144.188,133.708c-13.657-14.074-31.361-22.404-52.309-22.404c-51.773,0-83.74,50.871-83.74,113.623    c40.398,0,57.751,0,72.952,0c1.778-12.931,5.15-28.271,11.516-42.028C103.572,159.204,121.474,141.212,144.188,133.708z"/><path d="M250.288,182.585c-23.197,0-42.002,18.804-42.002,42.002c0,23.194,18.805,42,42.002,42s42-18.806,42-42    C292.288,201.389,273.485,182.585,250.288,182.585z M250.288,260.872c-20.039,0-36.285-16.246-36.285-36.288    c0-20.038,16.246-36.283,36.285-36.283s36.285,16.245,36.285,36.283C286.573,244.626,270.327,260.872,250.288,260.872z"/><polygon points="257.358,217.15 250.287,202.821 243.216,217.15 227.403,219.447 238.845,230.602 236.145,246.351     250.287,238.915 264.43,246.351 261.729,230.602 273.171,219.447   "/></g></g><g display="none"><g display="inline"><circle cx="168.547" cy="83.48" r="44.812"/><path d="M237.284,180.962c-14.229-27.717-37.99-45.659-68.737-45.659c-51.774,0-83.74,50.871-83.74,113.623    c78.168,0,70.071,0,127.023,0c-4.466-7.041-7.062-15.385-7.062-24.34C204.768,203.967,218.482,186.559,237.284,180.962z"/><path d="M218.797,83.48c0,3.86-0.445,7.614-1.27,11.224c7.623,6,17.232,9.589,27.686,9.589c24.75,0,44.812-20.062,44.812-44.812    c0-24.75-20.062-44.812-44.812-44.812c-20.167,0-37.22,13.324-42.844,31.649C212.462,55.509,218.797,68.754,218.797,83.48z"/><path d="M328.953,224.927c0-62.752-31.967-113.623-83.74-113.623c-20.974,0-38.695,8.35-52.359,22.455    c21.605,7.193,38.838,23.888,49.875,45.945c2.459-0.411,4.982-0.637,7.559-0.637c25.139,0,45.52,20.381,45.52,45.52    c0,0.114-0.008,0.227-0.009,0.341C305.104,224.927,315.987,224.927,328.953,224.927z"/><path d="M91.879,104.293c10.454,0,20.063-3.589,27.687-9.589c-0.824-3.609-1.269-7.364-1.269-11.223    c0-14.726,6.335-27.971,16.427-37.161c-5.623-18.326-22.675-31.65-42.844-31.65c-24.748,0-44.812,20.063-44.812,44.812    C47.067,84.23,67.131,104.293,91.879,104.293z"/><path d="M144.188,133.708c-13.657-14.074-31.361-22.404-52.309-22.404c-51.773,0-83.74,50.871-83.74,113.623    c40.398,0,57.751,0,72.952,0c1.778-12.931,5.15-28.271,11.516-42.028C103.572,159.204,121.474,141.212,144.188,133.708z"/><path d="M250.288,182.585c-23.197,0-42.002,18.804-42.002,42.002c0,23.194,18.805,42,42.002,42s42-18.806,42-42    C292.288,201.389,273.485,182.585,250.288,182.585z M250.288,260.872c-20.039,0-36.285-16.246-36.285-36.288    c0-20.038,16.246-36.283,36.285-36.283s36.285,16.245,36.285,36.283C286.573,244.626,270.327,260.872,250.288,260.872z"/><path d="M267.902,203.777c-1.045-1.165-2.835-1.261-3.996-0.216l-4.206,3.783l9.154,10.178l4.204-3.783    c1.163-1.044,1.256-2.834,0.21-3.996L267.902,203.777z"/><polygon points="226.578,246.335 228.088,246.017 227.056,244.87   "/><polygon points="230.915,233.231 230.833,233.306 230.825,233.296 227.214,244.384 228.587,245.912 239.995,243.495     239.987,243.483 240.068,243.408   "/><rect x="243.019" y="207.896" transform="matrix(-0.6686 -0.7436 0.7436 -0.6686 249.3215 561.8993)" width="13.688" height="35"/></g></g><g display="none"><g display="inline"><circle cx="168.547" cy="83.48" r="44.812"/><path d="M237.284,180.962c-14.229-27.717-37.99-45.659-68.737-45.659c-51.774,0-83.74,50.871-83.74,113.623    c78.168,0,70.071,0,127.023,0c-4.466-7.041-7.062-15.385-7.062-24.34C204.768,203.967,218.482,186.559,237.284,180.962z"/><path d="M218.797,83.48c0,3.86-0.445,7.614-1.27,11.224c7.623,6,17.232,9.589,27.686,9.589c24.75,0,44.812-20.062,44.812-44.812    c0-24.75-20.062-44.812-44.812-44.812c-20.167,0-37.22,13.324-42.844,31.649C212.462,55.509,218.797,68.754,218.797,83.48z"/><path d="M328.953,224.927c0-62.752-31.967-113.623-83.74-113.623c-20.974,0-38.695,8.35-52.359,22.455    c21.605,7.193,38.838,23.888,49.875,45.945c2.459-0.411,4.982-0.637,7.559-0.637c25.139,0,45.52,20.381,45.52,45.52    c0,0.114-0.008,0.227-0.009,0.341C305.104,224.927,315.987,224.927,328.953,224.927z"/><path d="M91.879,104.293c10.454,0,20.063-3.589,27.687-9.589c-0.824-3.609-1.269-7.364-1.269-11.223    c0-14.726,6.335-27.971,16.427-37.161c-5.623-18.326-22.675-31.65-42.844-31.65c-24.748,0-44.812,20.063-44.812,44.812    C47.067,84.23,67.131,104.293,91.879,104.293z"/><path d="M144.188,133.708c-13.657-14.074-31.361-22.404-52.309-22.404c-51.773,0-83.74,50.871-83.74,113.623    c40.398,0,57.751,0,72.952,0c1.778-12.931,5.15-28.271,11.516-42.028C103.572,159.204,121.474,141.212,144.188,133.708z"/><path d="M250.288,182.585c-23.197,0-42.002,18.804-42.002,42.002c0,23.194,18.805,42,42.002,42s42-18.806,42-42    C292.288,201.389,273.485,182.585,250.288,182.585z M250.288,260.872c-20.039,0-36.285-16.246-36.285-36.288    c0-20.038,16.246-36.283,36.285-36.283s36.285,16.245,36.285,36.283C286.573,244.626,270.327,260.872,250.288,260.872z"/><path d="M265.437,216.067l2.856-4.979l-2.836-2.835l-0.985-0.987l-0.686-0.684l-4.977,2.855c-1.199-0.675-2.483-1.209-3.835-1.589    l-1.501-5.539h-0.97h-4.435h-0.968l-1.501,5.539c-1.352,0.378-2.635,0.912-3.832,1.589l-4.978-2.856l-0.685,0.684h-0.002    l-3.137,3.137l0.002,0.001l-0.686,0.686l2.857,4.977c-0.677,1.198-1.213,2.48-1.589,3.834l-5.541,1.501v0.969v4.436v0.968    l5.541,1.501c0.376,1.352,0.912,2.634,1.589,3.833l-2.857,4.979l4.506,4.506l4.979-2.855c1.197,0.674,2.48,1.208,3.832,1.586    l1.501,5.541h0.968h4.435h0.97l1.501-5.541c1.352-0.378,2.634-0.912,3.832-1.589l4.981,2.858l4.505-4.506l-2.856-4.981    c0.675-1.196,1.21-2.479,1.586-3.83l5.541-1.501v-0.968v-4.436V221.4l-5.541-1.501    C266.646,218.548,266.111,217.265,265.437,216.067z M250.287,232.552c-4.398,0-7.965-3.567-7.965-7.966s3.566-7.965,7.965-7.965    c4.399,0,7.966,3.566,7.966,7.965S254.687,232.552,250.287,232.552z"/></g></g><g display="none"><g display="inline"><circle cx="168.547" cy="83.48" r="44.812"/><path d="M237.284,180.962c-14.229-27.717-37.99-45.659-68.737-45.659c-51.774,0-83.74,50.871-83.74,113.623    c78.168,0,70.071,0,127.023,0c-4.466-7.041-7.062-15.385-7.062-24.34C204.768,203.967,218.482,186.559,237.284,180.962z"/><path d="M218.797,83.48c0,3.86-0.445,7.614-1.27,11.224c7.623,6,17.232,9.589,27.686,9.589c24.75,0,44.812-20.062,44.812-44.812    c0-24.75-20.062-44.812-44.812-44.812c-20.167,0-37.22,13.324-42.844,31.649C212.462,55.509,218.797,68.754,218.797,83.48z"/><path d="M328.953,224.927c0-62.752-31.967-113.623-83.74-113.623c-20.974,0-38.695,8.35-52.359,22.455    c21.605,7.193,38.838,23.888,49.875,45.945c2.459-0.411,4.982-0.637,7.559-0.637c25.139,0,45.52,20.381,45.52,45.52    c0,0.114-0.008,0.227-0.009,0.341C305.104,224.927,315.987,224.927,328.953,224.927z"/><path d="M91.879,104.293c10.454,0,20.063-3.589,27.687-9.589c-0.824-3.609-1.269-7.364-1.269-11.223    c0-14.726,6.335-27.971,16.427-37.161c-5.623-18.326-22.675-31.65-42.844-31.65c-24.748,0-44.812,20.063-44.812,44.812    C47.067,84.23,67.131,104.293,91.879,104.293z"/><path d="M144.188,133.708c-13.657-14.074-31.361-22.404-52.309-22.404c-51.773,0-83.74,50.871-83.74,113.623    c40.398,0,57.751,0,72.952,0c1.778-12.931,5.15-28.271,11.516-42.028C103.572,159.204,121.474,141.212,144.188,133.708z"/><path d="M250.288,182.585c-23.197,0-42.002,18.804-42.002,42.002c0,23.194,18.805,42,42.002,42s42-18.806,42-42    C292.288,201.389,273.485,182.585,250.288,182.585z M250.288,260.872c-20.039,0-36.285-16.246-36.285-36.288    c0-20.038,16.246-36.283,36.285-36.283s36.285,16.245,36.285,36.283C286.573,244.626,270.327,260.872,250.288,260.872z"/><path d="M265.373,218.204h-3.76v-4.567c0-6.255-5.072-11.327-11.326-11.327c-6.256,0-11.327,5.072-11.327,11.327v4.567h-3.759    c-1.096,0-1.982,0.891-1.982,1.986v24.685c0,1.097,0.887,1.986,1.982,1.986h30.172c1.096,0,1.982-0.89,1.982-1.986V220.19    C267.355,219.095,266.469,218.204,265.373,218.204z M245.094,239.785l3.173-7.122c-1.252-0.708-2.107-2.036-2.107-3.579    c0-2.278,1.848-4.127,4.128-4.127c2.279,0,4.127,1.849,4.127,4.127c0,1.543-0.856,2.871-2.106,3.579l3.171,7.122H245.094z     M258.592,218.204h-16.609v-4.567c0-4.587,3.718-8.305,8.305-8.305c4.586,0,8.305,3.718,8.305,8.305V218.204z"/></g></g><g display="none"><g display="inline"><circle cx="168.547" cy="83.48" r="44.812"/><path d="M237.284,180.962c-14.229-27.717-37.99-45.659-68.737-45.659c-51.774,0-83.74,50.871-83.74,113.623    c78.168,0,70.071,0,127.023,0c-4.466-7.041-7.062-15.385-7.062-24.34C204.768,203.967,218.482,186.559,237.284,180.962z"/><path d="M218.797,83.48c0,3.86-0.445,7.614-1.27,11.224c7.623,6,17.232,9.589,27.686,9.589c24.75,0,44.812-20.062,44.812-44.812    c0-24.75-20.062-44.812-44.812-44.812c-20.167,0-37.22,13.324-42.844,31.649C212.462,55.509,218.797,68.754,218.797,83.48z"/><path d="M328.953,224.927c0-62.752-31.967-113.623-83.74-113.623c-20.974,0-38.695,8.35-52.359,22.455    c21.605,7.193,38.838,23.888,49.875,45.945c2.459-0.411,4.982-0.637,7.559-0.637c25.139,0,45.52,20.381,45.52,45.52    c0,0.114-0.008,0.227-0.009,0.341C305.104,224.927,315.987,224.927,328.953,224.927z"/><path d="M91.879,104.293c10.454,0,20.063-3.589,27.687-9.589c-0.824-3.609-1.269-7.364-1.269-11.223    c0-14.726,6.335-27.971,16.427-37.161c-5.623-18.326-22.675-31.65-42.844-31.65c-24.748,0-44.812,20.063-44.812,44.812    C47.067,84.23,67.131,104.293,91.879,104.293z"/><path d="M144.188,133.708c-13.657-14.074-31.361-22.404-52.309-22.404c-51.773,0-83.74,50.871-83.74,113.623    c40.398,0,57.751,0,72.952,0c1.778-12.931,5.15-28.271,11.516-42.028C103.572,159.204,121.474,141.212,144.188,133.708z"/><path d="M250.288,182.585c-23.197,0-42.002,18.803-42.002,42c0,23.194,18.805,42.001,42.002,42.001s42.001-18.807,42.001-42.001    C292.289,201.388,273.485,182.585,250.288,182.585z M250.288,188.3c11.196,0,21.206,5.075,27.863,13.047l-60.084,39.918    c-2.591-4.997-4.065-10.664-4.065-16.683C214.002,204.545,230.249,188.3,250.288,188.3z M250.288,260.869    c-11.196,0-21.205-5.073-27.862-13.046l60.084-39.917c2.59,4.994,4.064,10.66,4.064,16.676    C286.574,244.624,270.327,260.869,250.288,260.869z"/></g></g><g display="none"><g display="inline"><circle cx="168.547" cy="83.48" r="44.812"/><path d="M237.284,180.962c-14.229-27.717-37.99-45.659-68.737-45.659c-51.774,0-83.74,50.871-83.74,113.623    c78.168,0,70.071,0,127.023,0c-4.466-7.041-7.062-15.385-7.062-24.34C204.768,203.967,218.482,186.559,237.284,180.962z"/><path d="M218.797,83.48c0,3.86-0.445,7.614-1.27,11.224c7.623,6,17.232,9.589,27.686,9.589c24.75,0,44.812-20.062,44.812-44.812    c0-24.75-20.062-44.812-44.812-44.812c-20.167,0-37.22,13.324-42.844,31.649C212.462,55.509,218.797,68.754,218.797,83.48z"/><path d="M328.953,224.927c0-62.752-31.967-113.623-83.74-113.623c-20.974,0-38.695,8.35-52.359,22.455    c21.605,7.193,38.838,23.888,49.875,45.945c2.459-0.411,4.982-0.637,7.559-0.637c25.139,0,45.52,20.381,45.52,45.52    c0,0.114-0.008,0.227-0.009,0.341C305.104,224.927,315.987,224.927,328.953,224.927z"/><path d="M91.879,104.293c10.454,0,20.063-3.589,27.687-9.589c-0.824-3.609-1.269-7.364-1.269-11.223    c0-14.726,6.335-27.971,16.427-37.161c-5.623-18.326-22.675-31.65-42.844-31.65c-24.748,0-44.812,20.063-44.812,44.812    C47.067,84.23,67.131,104.293,91.879,104.293z"/><path d="M144.188,133.708c-13.657-14.074-31.361-22.404-52.309-22.404c-51.773,0-83.74,50.871-83.74,113.623    c40.398,0,57.751,0,72.952,0c1.778-12.931,5.15-28.271,11.516-42.028C103.572,159.204,121.474,141.212,144.188,133.708z"/><path d="M250.288,182.585c-23.197,0-42.002,18.804-42.002,42.002c0,23.194,18.805,42,42.002,42s42-18.806,42-42    C292.288,201.389,273.485,182.585,250.288,182.585z M250.288,260.872c-20.039,0-36.285-16.246-36.285-36.288    c0-20.038,16.246-36.283,36.285-36.283s36.285,16.245,36.285,36.283C286.573,244.626,270.327,260.872,250.288,260.872z"/><path d="M251.346,207.175c-12.483,0-22.6,7.395-22.6,16.517c0,2.513,0.79,4.886,2.164,7.017    c-0.742,3.458-1.992,7.809-3.905,10.103c-2.316,2.783,6.559,0.21,12.74-2.964c3.393,1.488,7.354,2.36,11.601,2.36    c12.481,0,22.6-7.396,22.6-16.516C273.945,214.569,263.827,207.175,251.346,207.175z M243.006,226.867    c-1.26,0-2.281-1.021-2.281-2.281c0-1.26,1.021-2.281,2.281-2.281c1.261,0,2.283,1.021,2.283,2.281    C245.289,225.847,244.267,226.867,243.006,226.867z M250.287,226.867c-1.261,0-2.281-1.021-2.281-2.281    c0-1.26,1.021-2.281,2.281-2.281c1.262,0,2.281,1.021,2.281,2.281C252.568,225.847,251.549,226.867,250.287,226.867z     M257.568,226.867c-1.261,0-2.282-1.021-2.282-2.281c0-1.26,1.021-2.281,2.282-2.281c1.26,0,2.282,1.021,2.282,2.281    C259.851,225.847,258.828,226.867,257.568,226.867z"/></g></g><g display="none"><g display="inline"><circle cx="168.547" cy="83.48" r="44.812"/><path d="M237.284,180.962c-14.229-27.717-37.99-45.659-68.737-45.659c-51.774,0-83.74,50.871-83.74,113.623    c78.168,0,70.071,0,127.023,0c-4.466-7.041-7.062-15.385-7.062-24.34C204.768,203.967,218.482,186.559,237.284,180.962z"/><path d="M218.797,83.48c0,3.86-0.445,7.614-1.27,11.224c7.623,6,17.232,9.589,27.686,9.589c24.75,0,44.812-20.062,44.812-44.812    c0-24.75-20.062-44.812-44.812-44.812c-20.167,0-37.22,13.324-42.844,31.649C212.462,55.509,218.797,68.754,218.797,83.48z"/><path d="M328.953,224.927c0-62.752-31.967-113.623-83.74-113.623c-20.974,0-38.695,8.35-52.359,22.455    c21.605,7.193,38.838,23.888,49.875,45.945c2.459-0.411,4.982-0.637,7.559-0.637c25.139,0,45.52,20.381,45.52,45.52    c0,0.114-0.008,0.227-0.009,0.341C305.104,224.927,315.987,224.927,328.953,224.927z"/><path d="M91.879,104.293c10.454,0,20.063-3.589,27.687-9.589c-0.824-3.609-1.269-7.364-1.269-11.223    c0-14.726,6.335-27.971,16.427-37.161c-5.623-18.326-22.675-31.65-42.844-31.65c-24.748,0-44.812,20.063-44.812,44.812    C47.067,84.23,67.131,104.293,91.879,104.293z"/><path d="M144.188,133.708c-13.657-14.074-31.361-22.404-52.309-22.404c-51.773,0-83.74,50.871-83.74,113.623    c40.398,0,57.751,0,72.952,0c1.778-12.931,5.15-28.271,11.516-42.028C103.572,159.204,121.474,141.212,144.188,133.708z"/><path d="M250.288,182.585c-23.197,0-42.002,18.804-42.002,42.002c0,23.194,18.805,42,42.002,42s42-18.806,42-42    C292.288,201.389,273.485,182.585,250.288,182.585z M250.288,260.872c-20.039,0-36.285-16.246-36.285-36.288    c0-20.038,16.246-36.283,36.285-36.283s36.285,16.245,36.285,36.283C286.573,244.626,270.327,260.872,250.288,260.872z"/><path d="M270.651,208.278c-0.1-0.115-0.191-0.236-0.304-0.342l-5.577-5.125c-1.452-1.331-3.706-1.235-5.037,0.214l-5.123,5.576    c-1.334,1.449-1.237,3.704,0.213,5.034l5.575,5.125c0.12,0.111,0.253,0.195,0.384,0.287c-2.049,2.714-4.475,5.632-7.188,8.585    c-2.713,2.953-5.415,5.618-7.946,7.889c-0.102-0.122-0.199-0.247-0.319-0.357l-5.578-5.125c-1.447-1.332-3.703-1.235-5.034,0.216    l-5.124,5.573c-1.332,1.45-1.238,3.706,0.213,5.036l5.576,5.127c0.116,0.104,0.243,0.187,0.368,0.272    c0.066,0.078,0.117,0.171,0.189,0.238c3.335,3.062,13.864-2.973,23.521-13.481c9.655-10.509,14.779-21.509,11.444-24.571    C270.829,208.38,270.735,208.339,270.651,208.278z"/></g></g><g display="none"><g display="inline"><circle cx="168.547" cy="83.48" r="44.812"/><path d="M237.284,180.962c-14.229-27.717-37.99-45.659-68.737-45.659c-51.774,0-83.74,50.871-83.74,113.623    c78.168,0,70.071,0,127.023,0c-4.466-7.041-7.062-15.385-7.062-24.34C204.768,203.967,218.482,186.559,237.284,180.962z"/><path d="M218.797,83.48c0,3.86-0.445,7.614-1.27,11.224c7.623,6,17.232,9.589,27.686,9.589c24.75,0,44.812-20.062,44.812-44.812    c0-24.75-20.062-44.812-44.812-44.812c-20.167,0-37.22,13.324-42.844,31.649C212.462,55.509,218.797,68.754,218.797,83.48z"/><path d="M328.953,224.927c0-62.752-31.967-113.623-83.74-113.623c-20.974,0-38.695,8.35-52.359,22.455    c21.605,7.193,38.838,23.888,49.875,45.945c2.459-0.411,4.982-0.637,7.559-0.637c25.139,0,45.52,20.381,45.52,45.52    c0,0.114-0.008,0.227-0.009,0.341C305.104,224.927,315.987,224.927,328.953,224.927z"/><path d="M91.879,104.293c10.454,0,20.063-3.589,27.687-9.589c-0.824-3.609-1.269-7.364-1.269-11.223    c0-14.726,6.335-27.971,16.427-37.161c-5.623-18.326-22.675-31.65-42.844-31.65c-24.748,0-44.812,20.063-44.812,44.812    C47.067,84.23,67.131,104.293,91.879,104.293z"/><path d="M144.188,133.708c-13.657-14.074-31.361-22.404-52.309-22.404c-51.773,0-83.74,50.871-83.74,113.623    c40.398,0,57.751,0,72.952,0c1.778-12.931,5.15-28.271,11.516-42.028C103.572,159.204,121.474,141.212,144.188,133.708z"/><path d="M250.288,182.585c-23.197,0-42.002,18.804-42.002,42.002c0,23.194,18.805,42,42.002,42s42-18.806,42-42    C292.288,201.389,273.485,182.585,250.288,182.585z M250.288,260.872c-20.039,0-36.285-16.246-36.285-36.288    c0-20.038,16.246-36.283,36.285-36.283s36.285,16.245,36.285,36.283C286.573,244.626,270.327,260.872,250.288,260.872z"/><path d="M263.186,213.867c0-1.376-1.119-2.495-2.498-2.495h-29.541c-1.377,0-2.494,1.119-2.494,2.495v22.116    c0,1.38,1.117,2.498,2.494,2.498h29.541c1.379,0,2.498-1.118,2.498-2.498v-6.122l8.736,3.869v-19.337l-8.736,3.867V213.867z     M256.268,219.801c-1.293,0-2.34-1.049-2.34-2.344c0-1.291,1.047-2.34,2.34-2.34s2.342,1.049,2.342,2.34    C258.609,218.752,257.561,219.801,256.268,219.801z"/></g></g><g display="none"><g display="inline"><circle cx="168.547" cy="83.48" r="44.812"/><path d="M237.284,180.962c-14.229-27.717-37.99-45.659-68.737-45.659c-51.774,0-83.74,50.871-83.74,113.623    c78.168,0,70.071,0,127.023,0c-4.466-7.041-7.062-15.385-7.062-24.34C204.768,203.967,218.482,186.559,237.284,180.962z"/><path d="M218.797,83.48c0,3.86-0.445,7.614-1.27,11.224c7.623,6,17.232,9.589,27.686,9.589c24.75,0,44.812-20.062,44.812-44.812    c0-24.75-20.062-44.812-44.812-44.812c-20.167,0-37.22,13.324-42.844,31.649C212.462,55.509,218.797,68.754,218.797,83.48z"/><path d="M328.953,224.927c0-62.752-31.967-113.623-83.74-113.623c-20.974,0-38.695,8.35-52.359,22.455    c21.605,7.193,38.838,23.888,49.875,45.945c2.459-0.411,4.982-0.637,7.559-0.637c25.139,0,45.52,20.381,45.52,45.52    c0,0.114-0.008,0.227-0.009,0.341C305.104,224.927,315.987,224.927,328.953,224.927z"/><path d="M91.879,104.293c10.454,0,20.063-3.589,27.687-9.589c-0.824-3.609-1.269-7.364-1.269-11.223    c0-14.726,6.335-27.971,16.427-37.161c-5.623-18.326-22.675-31.65-42.844-31.65c-24.748,0-44.812,20.063-44.812,44.812    C47.067,84.23,67.131,104.293,91.879,104.293z"/><path d="M144.188,133.708c-13.657-14.074-31.361-22.404-52.309-22.404c-51.773,0-83.74,50.871-83.74,113.623    c40.398,0,57.751,0,72.952,0c1.778-12.931,5.15-28.271,11.516-42.028C103.572,159.204,121.474,141.212,144.188,133.708z"/><path d="M250.288,182.585c-23.197,0-42.002,18.804-42.002,42.002c0,23.194,18.805,42,42.002,42s42-18.806,42-42    C292.288,201.389,273.485,182.585,250.288,182.585z M250.288,260.872c-20.039,0-36.285-16.246-36.285-36.288    c0-20.038,16.246-36.283,36.285-36.283s36.285,16.245,36.285,36.283C286.573,244.626,270.327,260.872,250.288,260.872z"/><path d="M255.99,226.971c-0.213-0.174-0.46-0.28-0.715-0.321l0.687-0.844c0.375-0.462,0.306-1.139-0.155-1.514    c-0.319-0.259-0.739-0.301-1.094-0.152c2.026-5.1,0.626-11.129-3.856-14.772c-5.529-4.493-13.655-3.654-18.147,1.877    c-4.493,5.528-3.652,13.653,1.875,18.146c4.484,3.642,10.674,3.779,15.249,0.753c-0.071,0.376,0.055,0.779,0.373,1.039    c0.462,0.374,1.138,0.304,1.514-0.154l0.686-0.846c0.093,0.24,0.247,0.459,0.462,0.634l12.543,10.245l3.127-3.847L255.99,226.971z     M250.61,225.79c-3.541,4.358-9.943,5.021-14.302,1.479c-4.358-3.542-5.019-9.944-1.479-14.303    c3.541-4.357,9.944-5.02,14.302-1.479C253.49,215.03,254.152,221.433,250.61,225.79z"/><path d="M269.447,237.904l-3.126,3.846l0.741,0.602c0.658,0.535,1.62,0.435,2.153-0.222l1.195-1.47    c0.533-0.656,0.433-1.619-0.222-2.152L269.447,237.904z"/></g></g><g display="none"><g display="inline"><circle cx="168.547" cy="83.48" r="44.812"/><path d="M237.284,180.962c-14.229-27.717-37.99-45.659-68.737-45.659c-51.774,0-83.74,50.871-83.74,113.623    c78.168,0,70.071,0,127.023,0c-4.466-7.041-7.062-15.385-7.062-24.34C204.768,203.967,218.482,186.559,237.284,180.962z"/><path d="M218.797,83.48c0,3.86-0.445,7.614-1.27,11.224c7.623,6,17.232,9.589,27.686,9.589c24.75,0,44.812-20.062,44.812-44.812    c0-24.75-20.062-44.812-44.812-44.812c-20.167,0-37.22,13.324-42.844,31.649C212.462,55.509,218.797,68.754,218.797,83.48z"/><path d="M328.953,224.927c0-62.752-31.967-113.623-83.74-113.623c-20.974,0-38.695,8.35-52.359,22.455    c21.605,7.193,38.838,23.888,49.875,45.945c2.459-0.411,4.982-0.637,7.559-0.637c25.139,0,45.52,20.381,45.52,45.52    c0,0.114-0.008,0.227-0.009,0.341C305.104,224.927,315.987,224.927,328.953,224.927z"/><path d="M91.879,104.293c10.454,0,20.063-3.589,27.687-9.589c-0.824-3.609-1.269-7.364-1.269-11.223    c0-14.726,6.335-27.971,16.427-37.161c-5.623-18.326-22.675-31.65-42.844-31.65c-24.748,0-44.812,20.063-44.812,44.812    C47.067,84.23,67.131,104.293,91.879,104.293z"/><path d="M144.188,133.708c-13.657-14.074-31.361-22.404-52.309-22.404c-51.773,0-83.74,50.871-83.74,113.623    c40.398,0,57.751,0,72.952,0c1.778-12.931,5.15-28.271,11.516-42.028C103.572,159.204,121.474,141.212,144.188,133.708z"/><path d="M250.288,182.585c-23.197,0-42.002,18.804-42.002,42.002c0,23.194,18.805,42,42.002,42s42-18.806,42-42    C292.288,201.389,273.485,182.585,250.288,182.585z M250.288,260.872c-20.039,0-36.285-16.246-36.285-36.288    c0-20.038,16.246-36.283,36.285-36.283s36.285,16.245,36.285,36.283C286.573,244.626,270.327,260.872,250.288,260.872z"/><path d="M270.601,211.973l-20.313,12.612L229.8,212.008c-1.211,0.092-2.173,1.077-2.173,2.313v20.532    c0,1.296,1.049,2.346,2.346,2.346h40.628c1.298,0,2.347-1.05,2.347-2.346v-20.532    C272.947,213.023,271.898,211.973,270.601,211.973z"/><polygon points="267.882,211.973 232.49,211.973 250.287,222.898   "/></g></g></svg>
