<?xml version="1.0" encoding="utf-8"?>
<!-- Generator: Adobe Illustrator 22.0.0, SVG Export Plug-In . SVG Version: 6.00 Build 0)  -->
<svg version="1.1" id="Layer_1" xmlns="http://www.w3.org/2000/svg" xmlns:xlink="http://www.w3.org/1999/xlink" x="0px" y="0px"
	 viewBox="0 0 250 250" style="enable-background:new 0 0 250 250;" xml:space="preserve">
<style type="text/css">
	.st0{fill:#DEA741;}
</style>
<g>
	
		<image style="overflow:visible;opacity:0.75;" width="254" height="244" xlink:href="174238C437DE1704.png"  transform="matrix(1 0 0 1 9.2352 10)">
	</image>
	<g>
		<g>
			<path class="st0" d="M151,223.6c0,6.4,5.3,11.4,11.7,11.4c6.6,0,11.7-5.2,11.7-11.4v-11.7c-8.4-0.7-16.2-2.8-23.6-5.9L151,223.6
				L151,223.6z"/>
			<path class="st0" d="M179,212v11.4c0,6.4,5.3,11.4,11.7,11.4c6.6,0,11.7-5.2,11.7-11.4v-15.1c-7,2.3-14.6,3.6-22.4,3.6
				C179.8,212.1,179.4,212,179,212z"/>
			<path class="st0" d="M158.6,72.4c1.1,1.8,2.3,3.7,3.2,5.7c5.9-1.5,12-2.4,18.3-2.4c14.8,0,28.5,4.5,39.9,12.2
				c-1.8-6.2-4-10.9-6.6-14.6c-3.1-4.6-6.8-7.6-10.1-9.2c-2.2-1.1-4.3-1.7-5.9-1.9c-0.7-0.2-1.5-0.3-2.3-0.3h-36.8
				c-0.8,0-1.6,0.1-2.3,0.3c-1.6,0.2-3.6,0.7-5.6,1.8C153,65.8,155.8,68.3,158.6,72.4z"/>
			<ellipse class="st0" cx="176.8" cy="35.9" rx="21.4" ry="20.9"/>
			<path class="st0" d="M81.4,152.8c-0.2,0-0.3,0-0.6,0c-5.1,0-9.2-3.8-9.5-8.7c-0.3-6.3-0.6-12.2-0.6-17.9
				c0-19.4,2.2-34.2,6.7-45.2c3-7.5,7.5-13.4,12.8-16.9c-2.2-1-4-1.5-5.6-1.8c-0.7-0.2-1.5-0.3-2.3-0.3H45.4c-0.8,0-1.6,0.1-2.3,0.3
				c-1.6,0.2-3.7,0.8-5.9,1.9c-5.2,2.4-10.7,7.9-14.5,17.5c-3.9,9.7-6.6,23.5-6.6,44.5c0,5.4,0.2,11.3,0.6,17.8c0.2,4,3.6,7,7.6,7
				c0.1,0,0.3,0,0.5,0c4.3-0.2,7.4-3.7,7.1-7.8c-0.3-6.2-0.6-11.8-0.6-16.9c0-22.4,3.3-35.1,6.7-41.7v138.9
				c0,6.4,5.3,11.4,11.7,11.4c6.6,0,11.7-5.2,11.7-11.4v-83.7h4.4v83.7c0,6.4,5.3,11.4,11.7,11.4c6.6,0,11.7-5.2,11.7-11.4v-76.2
				C88.2,150.4,85.1,152.6,81.4,152.8z"/>
			<ellipse class="st0" cx="63.8" cy="35.9" rx="21.4" ry="20.9"/>
			<path class="st0" d="M122.5,182.4v41c0,6.4,5.3,11.4,11.7,11.4c6.6,0,11.7-5.2,11.7-11.4v-20.1
				C136.6,198.3,128.6,191.1,122.5,182.4z"/>
			<path class="st0" d="M110.2,143.9c0-30.8,21-56.8,49.8-65.2c-0.9-2-2-3.7-3-5.3c-3.1-4.6-6.8-7.6-10.1-9.2
				c-2.2-1.1-4.3-1.7-5.9-1.9c-0.7-0.2-1.5-0.3-2.3-0.3h-36.8c-0.8,0-1.6,0.1-2.3,0.3c-1.6,0.2-3.7,0.8-5.9,1.9
				c-5.1,2.5-10.6,7.9-14.5,17.5c-3.9,9.7-6.6,23.5-6.6,44.6c0,5.4,0.2,11.3,0.6,17.8c0.2,4,3.6,7,7.6,7c0.1,0,0.3,0,0.5,0
				c4.3-0.2,7.4-3.7,7.1-7.8c-0.3-6.2-0.6-11.8-0.6-16.9c0-22.4,3.3-35.1,6.7-41.7v138.9c0,6.4,5.3,11.4,11.7,11.4
				c6.6,0,11.7-5.2,11.7-11.4v-48.3C113.1,165.9,110.2,155.2,110.2,143.9z"/>
			<ellipse class="st0" cx="120.3" cy="35.9" rx="21.4" ry="20.9"/>
			<path class="st0" d="M180.1,208.4c36.5,0,66.1-28.8,66.1-64.5s-29.6-64.5-66.1-64.5S114,108.4,114,143.9S143.7,208.4,180.1,208.4
				z M129.9,143.9c0-27,22.5-49,50.3-49s50.3,22,50.3,49s-22.5,48.9-50.3,48.9S129.9,171,129.9,143.9z"/>
			<polygon class="st0" points="188,176.1 188,151.7 213.2,151.7 213.2,136.2 188,136.2 188,111.7 172.2,111.7 172.2,136.2 
				147.1,136.2 147.1,151.7 172.2,151.7 172.2,176.1 			"/>
		</g>
	</g>
</g>
</svg>
