<svg xmlns="http://www.w3.org/2000/svg" xmlns:xlink="http://www.w3.org/1999/xlink" version="1.1" x="0px" y="0px" viewBox="0 0 100 125" enable-background="new 0 0 100 100" xml:space="preserve"><circle cx="64.32" cy="16.034" r="8.766"/><circle cx="35.832" cy="16.034" r="8.766"/><path d="M94.037,12.615c-1.284-1.284-3.366-1.284-4.648,0c-0.273,0.274-0.775,0.773-0.775,0.773L75.011,26.991h-2.079H55.4H44.598  h-17.53h-2.081L11.384,13.389c0,0-0.5-0.5-0.774-0.773c-1.283-1.284-3.365-1.284-4.648,0c-1.282,1.282-1.282,3.366,0,4.648  c0.273,0.274,0.775,0.775,0.775,0.775l13.945,13.945c0,0,0.501,0.5,0.775,0.774c0.358,0.358,0.78,0.605,1.228,0.764v0.043v32.871  h2.191v26.296h8.765V66.437h4.383v26.296h8.766V66.437h2.191V33.565c0.199,0,0.384,0,0.56,0c0.349,0,0.859,0,1.478,0v32.871h0.154  h2.037v26.296h0.154h8.611h0.154V66.437h4.229v26.296h0.154h8.611h0.153V66.437h2.038h0.153V33.565v-0.092  c0.391-0.161,0.757-0.398,1.074-0.716c0.273-0.274,0.775-0.774,0.775-0.774l13.945-13.945c0,0,0.5-0.501,0.774-0.775  C95.321,15.981,95.321,13.897,94.037,12.615z"/></svg>
