<?xml version="1.0" encoding="utf-8"?>
<!-- Generator: Adobe Illustrator 22.0.0, SVG Export Plug-In . SVG Version: 6.00 Build 0)  -->
<svg version="1.1" id="Layer_1" xmlns="http://www.w3.org/2000/svg" xmlns:xlink="http://www.w3.org/1999/xlink" x="0px" y="0px"
	 viewBox="0 0 250 250" style="enable-background:new 0 0 250 250;" xml:space="preserve">
<style type="text/css">
	.st0{fill:#99CDDB;}
</style>
<g>
	<g>
		<path id="XMLID_2049_" class="st0" d="M173.5,94.8H76.4c-3.4,0-6.1-2.8-6.1-6.4V18.5c0-3.5,2.8-6.4,6.1-6.4h97.2
			c3.4,0,6.1,2.8,6.1,6.4v69.9C179.7,92,176.9,94.8,173.5,94.8z"/>
		<path class="st0" d="M12.8,217.3h46.5c7.1,0,12.9-6.1,12.9-13.4v-26.2c0-7.5-5.9-13.4-12.9-13.4H40.8v-22.7c0-4,3.1-7.2,7-7.2
			h72.5v29.9h-18.6c-7.1,0-12.9,6.1-12.9,13.4v26.2c0,7.5,5.9,13.4,12.9,13.4h46.5c7.1,0,12.9-6.1,12.9-13.4v-26.2
			c0-7.5-5.9-13.4-12.9-13.4h-18.6v-29.9h72.5c3.9,0,7,3.3,7,7.2v22.7h-18.6c-7.1,0-12.9,6.1-12.9,13.4v26.2
			c0,7.5,5.9,13.4,12.9,13.4h46.5c7.1,0,12.9-6.1,12.9-13.4v-26.2c0-7.5-5.9-13.4-12.9-13.4h-18.6v-22.7c0-9.2-7.3-16.9-16.3-16.9
			h-72.7V99.5h37.8c9.4,0,17-7.9,17-17.6V25c0-9.8-7.6-17.6-17-17.6H82.6c-9.4,0-17,7.9-17,17.6v57c0,9.8,7.6,17.6,17,17.6h37.8
			v25.1H47.8c-8.9,0-16.3,7.6-16.3,16.9v22.7H12.8c-7.1,0-12.9,6.1-12.9,13.4V204C-0.1,211.4,5.8,217.3,12.8,217.3z M151.9,177.6
			v26.2c0,2.1-1.6,3.8-3.6,3.8h-46.5c-2,0-3.6-1.7-3.6-3.8v-26.2c0-2.1,1.6-3.8,3.6-3.8h46.5C150.3,173.9,151.9,175.7,151.9,177.6z
			 M240.7,177.6v26.2c0,2.1-1.6,3.8-3.6,3.8h-46.5c-2,0-3.6-1.7-3.6-3.8v-26.2c0-2.1,1.6-3.8,3.6-3.8h46.5
			C239.1,173.9,240.7,175.7,240.7,177.6z M74.9,82V25c0-4.4,3.5-8,7.8-8h84.8c4.3,0,7.8,3.6,7.8,8v57c0,4.4-3.5,8-7.8,8H82.6
			C78.2,90,74.9,86.4,74.9,82z M9.2,177.6c0-2.1,1.6-3.8,3.6-3.8h46.5c2,0,3.6,1.7,3.6,3.8v26.2c0,2.1-1.6,3.8-3.6,3.8H12.8
			c-2,0-3.6-1.7-3.6-3.8C9.2,203.9,9.2,177.6,9.2,177.6z"/>
		<path class="st0" d="M100.6,47.1h48.8c2.5,0,4.6-2.2,4.6-4.8s-2.1-4.8-4.6-4.8h-48.8c-2.5,0-4.6,2.2-4.6,4.8
			C96,44.9,98,47.1,100.6,47.1z"/>
		<path class="st0" d="M154,64.6c0-2.6-2.1-4.8-4.6-4.8h-48.8c-2.5,0-4.6,2.2-4.6,4.8s2.1,4.8,4.6,4.8h48.8
			C151.9,69.4,154,67.2,154,64.6z"/>
	</g>
</g>
</svg>
