<?xml version="1.0" encoding="utf-8"?>
<!-- Generator: Adobe Illustrator 22.0.0, SVG Export Plug-In . SVG Version: 6.00 Build 0)  -->
<svg version="1.1" id="Layer_1" xmlns="http://www.w3.org/2000/svg" xmlns:xlink="http://www.w3.org/1999/xlink" x="0px" y="0px"
	 viewBox="0 0 250 250" style="enable-background:new 0 0 250 250;" xml:space="preserve">
<style type="text/css">
	.st0{fill:#67AE8D;}
</style>
<g>
	
		<image style="overflow:visible;opacity:0.75;" width="72" height="73" xlink:href="5C61BDF6484C21E3.png"  transform="matrix(1 0 0 1 134 18)">
	</image>
	<g>
		<ellipse class="st0" cx="164.8" cy="47.3" rx="23.4" ry="24.1"/>
	</g>
</g>
<g>
	
		<image style="overflow:visible;opacity:0.75;" width="71" height="73" xlink:href="5C61BDF6484C21E1.png"  transform="matrix(1 0 0 1 55 18)">
	</image>
	<g>
		<ellipse class="st0" cx="85.6" cy="47.3" rx="23.4" ry="24.1"/>
	</g>
</g>
<g>
	
		<image style="overflow:visible;opacity:0.75;" width="275" height="228" xlink:href="5C61BDF6484C21E7.png"  transform="matrix(1 0 0 1 -7 31)">
	</image>
	<g>
		<path class="st0" d="M247.5,38.7c-3.6-3.2-9.4-3.2-12.9,0c-0.8,0.6-2.1,1.9-2.1,1.9l-37.8,34.1h-5.9H140h-30H61.2h-5.8L17.7,40.6
			c0,0-1.4-1.3-2.1-1.9c-3.6-3.2-9.4-3.2-12.9,0s-3.5,8.5,0,11.7c0.8,0.6,2.1,1.9,2.1,1.9l38.8,34.9c0,0,1.4,1.3,2.1,1.9
			c1,0.9,2.1,1.5,3.4,1.9v0.1v82.4h6.1v66h24.4v-65.9h12.1v65.9h24.4v-65.9h6.1V91.2c0.5,0,1.1,0,1.5,0c1,0,2.4,0,4.1,0v82.4h0.4
			h5.6v66h0.4h23.9h0.4v-65.9h11.8v65.9h0.4h23.9h0.4v-65.9h5.6h0.4V91.2V91c1.1-0.4,2.1-1,3-1.8c0.8-0.6,2.1-1.9,2.1-1.9l38.8-34.9
			c0,0,1.4-1.3,2.1-1.9C251,47.1,251,41.9,247.5,38.7z"/>
	</g>
</g>
</svg>
