<?xml version="1.0" encoding="utf-8"?>
<!-- Generator: Adobe Illustrator 22.0.0, SVG Export Plug-In . SVG Version: 6.00 Build 0)  -->
<svg version="1.1" id="Capa_1" xmlns="http://www.w3.org/2000/svg" xmlns:xlink="http://www.w3.org/1999/xlink" x="0px" y="0px"
	 viewBox="0 0 250 250" style="enable-background:new 0 0 250 250;" xml:space="preserve">
<style type="text/css">
	.st0{fill:#C42F41;}
</style>
<g>
	<g>
		<path class="st0" d="M125,59.4l-89.1,81.3c0,0.1,0,0.3-0.1,0.5c0,0.2-0.1,0.4-0.1,0.6V224c0,3,1,5.5,3,7.7c2,2.2,4.2,3.3,7,3.3
			h59.5v-65.9h39.7V235h59.5c2.6,0,5-1.1,7-3.3c2-2.2,3-4.7,3-7.7v-82.3c0-0.4,0-0.8-0.1-1L125,59.4z"/>
		<path class="st0" d="M248.2,122.1l-34-31.2V21c0-1.6-0.5-2.9-1.4-4c-0.9-1-2.1-1.5-3.6-1.5h-29.7c-1.5,0-2.6,0.5-3.6,1.5
			c-0.9,1-1.4,2.3-1.4,4v33.4l-37.8-35c-3.2-3-7.2-4.5-11.7-4.5s-8.5,1.5-11.7,4.5L1.7,122.2c-1,0.9-1.6,2.1-1.7,3.7
			c-0.1,1.5,0.2,2.9,1.1,4.1l9.6,12.6c0.9,1,1.9,1.6,3.2,1.9c1.2,0.1,2.5-0.3,3.7-1.2l107.3-99l107.2,98.9c0.9,0.8,1.9,1.2,3.2,1.2
			h0.5c1.4-0.2,2.4-0.9,3.2-1.9l9.6-12.7c0.9-1.1,1.2-2.5,1.1-4.1C249.8,124.3,249.2,123.1,248.2,122.1z"/>
	</g>
</g>
</svg>
