<?xml version="1.0" encoding="utf-8"?>
<!-- Generator: Adobe Illustrator 22.0.0, SVG Export Plug-In . SVG Version: 6.00 Build 0)  -->
<svg version="1.1" xmlns="http://www.w3.org/2000/svg" xmlns:xlink="http://www.w3.org/1999/xlink" x="0px" y="0px"
	 viewBox="0 0 600 600" style="enable-background:new 0 0 600 600;" xml:space="preserve">
<style type="text/css">
	.st0{fill:#1F2025;}
</style>
<g id="Layer_2">
</g>
<g id="Layer_1">
	<g>
		<path class="st0" d="M557.5,74.6c-0.7,0-1.3,0-2,0c-0.7,0-1.3,0-2,0c-21.7,1.5-38.2,12.3-42.8,29.2c-0.7,0.5-0.7,1.5-0.7,2.6
			c0,13.9,2.6,30.8-5.3,44.1c-3.3,5.1-14.5,12.8-21.7,7.2c-5.9-4.1,0-16.4,1.3-21.6c3.3-13.3,7.2-27.2-5.9-38.5
			c-12.5-10.3-32.9-12.3-48.1-4.1c-14.5,7.7-15.8,19.5-15.1,31.8c0.7,10.8,2,28.7-11.9,34.9c-5.9,2.6-22.4,3.1-27.7-0.5
			c-5.3-3.6-3.3-11.8-2.6-16.4c0.7-13.3-5.9-26.7-23.7-30.8c-20.4-4.6-42.8,8.2-42.2,25.1c0,7.7,4,15.9,5.9,23.6
			c2.6,11.3,4.6,23.1,1.3,34.9c-8.6-1-17.1-1-25.7,0c-4.6-17.4,1.3-34.9,5.9-51.8c2.6-12.8-3.3-25.1-19.1-30.3
			c-15.1-5.1-34.2,0-42.2,11.3c-4,5.1-4,11.3-4,16.9c0,4.1,2.6,11.3,0,15.4c-3.3,5.6-15.8,5.1-22.4,4.6c-9.2-1-14.5-5.1-17.1-11.8
			c-8.6-20.5,8.6-48.7-24.4-59.5c-16.5-5.6-34.9-1.5-44.8,8.7c-9.9,10.8-7.2,23.1-4,34.9c1.3,5.1,6.6,15.9,2.6,21
			c-5.9,7.7-19.1,1-22.4-4.1c-8.6-12.8-5.9-30.8-5.9-45.2c0-1,0-1.5-0.7-2.6c-6.6-24.6-44.1-38-71.1-22.6c-27,14.9-21.7,45.7-4,64.1
			c9.2,9.7,23.1,16.4,27,28.2c2.6,8.7,3.3,17.4,7.2,26.2c11.2,23.6,46.8,20.5,73.1,17.4c32.9-4.1,86.3-24.1,115.9-4.6
			c-5.9,4.1-11.2,8.7-16.5,13.9c-31-6.7-72.4-13.9-101.4-1.5c-17.8,7.7-22.4,23.1-19.1,38c4,17.4,19.8,28.2,42.8,26.7
			c21.7-1.5,42.2-10.3,60.6-20c0,21,9.2,40.5,19.1,60c4,7.7,9.2,16.4,7.9,25.1c-1.3,7.7-7.2,13.9-12.5,20
			c-14.5,16.9-26.3,33.4-29,53.9c-3.3,23.6,5.9,47.7,25.7,65.7c38.9,35.9,110,40.5,155.4,10.3c46.1-30.3,49.4-82.1,17.8-120.6
			c-5.9-7.2-13.2-13.9-17.8-21.6c-5.3-9.2-2.6-18,1.3-27.2c10.5-22.6,22.4-43.1,22.4-66.7c31,15.4,83,35.9,100.1,2.1
			c7.2-14.4,6.6-33.4-9.9-43.6c-15.1-9.2-36.2-9.7-54-8.7s-35.6,3.6-52.7,7.2c-4.6-5.1-10.5-9.7-16.5-13.9c29-19.5,81,0,113.9,4.1
			c29,3.6,65.9,6.2,76.4-21c4-9.7,2.6-21,9.2-29.8c7.9-11.8,24.4-19,31.6-31.3C610.2,109.5,597,77.2,557.5,74.6z M156.4,200.3
			c-18.4,3.6-36.9,7.2-56,8.2c-17.8,0.5-33.6-0.5-38.9-14.9c-3.3-9.2-3.3-19-7.9-27.7c-5.3-10.8-17.1-16.9-26.3-25.7
			c-12.5-12.3-20.4-34.4-4-47.2c19.1-14.9,48.7-4.1,53.3,15.4l0,0c0,19-4,51.8,23.1,60c11.2,3.6,26.3,2.1,32.3-7.2
			c5.9-9.7,0-22.1-2.6-31.3c-2-8.2-4.6-16.9,3.3-24.1c8.6-8.2,25-7.7,34.2,0c9.2,8.2,4,23.1,5.3,32.8c2,23.6,19.8,40,52,33.9
			c13.8-2.6,19.1-10.8,19.1-21.6c0-7.2-2.6-15.4,3.3-21.6c12.5-13.9,36.9-3.1,34.2,12.3c-4.6,18.5-10.5,37.5-5.9,56.4
			c-8.6,2.1-16.5,5.1-24.4,8.7C225.6,188,186.1,194.2,156.4,200.3z M482.4,240.4c13.8,14.9,0.7,40.5-24.4,38.5
			c-23.7-1.5-47.4-14.4-66.5-24.6c-4-2.1-11.2,0.5-10.5,4.6c4,24.6-6.6,46.2-17.8,68.2c-7.2,13.3-11.9,26.7-4,40.5
			c8.6,14.4,23.1,25.7,31,40.5c11.2,22.1,9.9,47.7-5.3,68.2c-31.6,43.6-110.6,50.8-154.8,13.9c-22.4-18.5-30.3-44.6-23.7-69.3
			c4.6-18,18.4-31.3,30.3-46.2c11.9-14.4,11.2-28.2,3.3-43.6c-11.9-24.1-24.4-46.2-20.4-72.4c0.7-4.1-6.6-7.2-10.5-4.6
			C190,265,167,277.3,142.6,278.8c-25,1.5-38.2-23.6-24.4-38.5c11.2-11.8,36.9-10.8,54-9.7c17.1,1,33.6,4.1,50.1,7.7
			c3.3,0.5,6.6-0.5,7.9-2.6c32.9-40,106.7-40,139.6,0c0.7,0.5,0.7,1,1.3,1c1.3,1.5,4,2.1,6.6,1.5c16.5-3.6,32.9-6.7,50.1-7.7
			C444.9,229.6,471.2,228.6,482.4,240.4z M585.2,123.4c-4.6,13.9-18.4,21.6-29.6,31.8c-14.5,13.3-6.6,33.9-20.4,46.7
			c-10.5,9.7-32.9,6.7-47.4,5.1c-17.8-1.5-34.9-6.2-52.7-9.2c-27-4.6-61.2-8.2-83,7.7c-7.9-3.6-15.8-6.7-24.4-8.7
			c4-16.4,0-33.4-4.6-49.3c-2.6-10.3-3.3-23.1,13.8-25.1c17.8-2.1,22.4,10.8,21.7,21.6c-0.7,9.7-1.3,20,10.5,25.1
			c12.5,5.6,34.2,5.1,45.4-2.1s13.8-19.5,14.5-30.3c0.7-13.3-5.9-33.4,16.5-37.5c15.1-3.1,27.7,6.7,27.7,18c0,7.7-3.3,15.9-5.3,23.6
			c-2,9.7-3.3,22.1,10.5,26.7c17.1,5.6,33.6-2.6,39.5-14.9c7.2-13.9,5.9-30.3,5.9-45.2l0,0c2.6-12.8,14.5-21.6,31-22.1
			C581.9,86.4,591.1,105.9,585.2,123.4z"/>
		<ellipse class="st0" cx="283.5" cy="284" rx="9.2" ry="10.8"/>
		<ellipse class="st0" cx="317.8" cy="284" rx="9.2" ry="10.8"/>
		<ellipse class="st0" cx="278.9" cy="484.1" rx="9.2" ry="7.2"/>
		<ellipse class="st0" cx="322.4" cy="484.1" rx="9.2" ry="7.2"/>
	</g>
</g>
</svg>
