<?xml version="1.0" encoding="utf-8"?>
<!-- Generator: Adobe Illustrator 22.0.0, SVG Export Plug-In . SVG Version: 6.00 Build 0)  -->
<svg version="1.1" xmlns="http://www.w3.org/2000/svg" xmlns:xlink="http://www.w3.org/1999/xlink" x="0px" y="0px"
	 viewBox="0 0 600 600" style="enable-background:new 0 0 600 600;" xml:space="preserve">
<style type="text/css">
	.st0{fill:#A68966;}
</style>
<g id="Layer_2">
</g>
<g id="Layer_1">
	<g>
		<path class="st0" d="M514,37.4c-0.5,0-1.1,0-1.6,0c-0.5,0-1.1,0-1.6,0c-18.1,1.7-31.8,13.7-35.7,32.5c-0.5,0.6-0.5,1.7-0.5,2.9
			c0,15.4,2.2,34.2-4.4,49c-2.7,5.7-12.1,14.3-18.1,8c-4.9-4.6,0-18.2,1.1-23.9c2.7-14.8,6-30.2-4.9-42.8
			c-10.4-11.4-27.4-13.7-40.1-4.6c-12.1,8.6-13.2,21.7-12.6,35.3c0.5,12,1.6,31.9-9.9,38.8c-4.9,2.9-18.7,3.4-23.1-0.6
			s-2.7-13.1-2.2-18.2c0.5-14.8-4.9-29.6-19.8-34.2c-17-5.1-35.7,9.1-35.1,27.9c0,8.6,3.3,17.7,4.9,26.2c2.2,12.5,3.8,25.7,1.1,38.8
			c-7.1-1.1-14.3-1.1-21.4,0c-3.8-19.4,1.1-38.8,4.9-57.6c2.2-14.3-2.7-27.9-15.9-33.6c-12.6-5.7-28.5,0-35.1,12.5
			c-3.3,5.7-3.3,12.5-3.3,18.8c0,4.6,2.2,12.5,0,17.1c-2.7,6.3-13.2,5.7-18.7,5.1c-7.7-1.1-12.1-5.7-14.3-13.1
			c-7.1-22.8,7.1-54.2-20.3-66.1c-13.7-6.3-29.1-1.7-37.3,9.7c-8.2,12-6,25.7-3.3,38.8c1.1,5.7,5.5,17.7,2.2,23.4
			c-4.9,8.6-15.9,1.1-18.7-4.6c-7.1-14.3-4.9-34.2-4.9-50.2c0-1.1,0-1.7-0.5-2.9c-5.5-27.4-36.8-42.2-59.3-25.1
			c-22.5,16.5-18.1,50.7-3.3,71.3c7.7,10.8,19.2,18.2,22.5,31.4c2.2,9.7,2.7,19.4,6,29.1c9.3,26.2,39,22.8,60.9,19.4
			c27.4-4.6,71.9-26.8,96.6-5.1c-4.9,4.6-9.3,9.7-13.7,15.4c-25.8-7.4-60.4-15.4-84.5-1.7c-14.8,8.6-18.7,25.7-15.9,42.2
			c3.3,19.4,16.5,31.4,35.7,29.6c18.1-1.7,35.1-11.4,50.5-22.2c0,23.4,7.7,45,15.9,66.7c3.3,8.6,7.7,18.2,6.6,27.9
			c-1.1,8.6-6,15.4-10.4,22.2c-12.1,18.8-22,37.1-24.1,59.9c-2.7,26.2,4.9,53,21.4,73c32.4,39.9,91.7,45,129.5,11.4
			c38.4-33.6,41.2-91.2,14.8-134c-4.9-8-11-15.4-14.8-23.9c-4.4-10.3-2.2-20,1.1-30.2C369.1,302,379,279.2,379,253
			c25.8,17.1,69.2,39.9,83.4,2.3c6-16,5.5-37.1-8.2-48.5c-12.6-10.3-30.2-10.8-45-9.7c-14.8,1.1-29.6,4-43.9,8
			c-3.8-5.7-8.8-10.8-13.7-15.4c24.1-21.7,67.5,0,94.9,4.6c24.1,4,54.9,6.8,63.7-23.4c3.3-10.8,2.2-23.4,7.7-33.1
			c6.6-13.1,20.3-21.1,26.3-34.8C557.9,76.2,547,40.3,514,37.4z M179.8,177.1c-15.4,4-30.7,8-46.7,9.1c-14.8,0.6-28-0.6-32.4-16.5
			c-2.7-10.3-2.7-21.1-6.6-30.8c-4.4-12-14.3-18.8-22-28.5c-10.4-13.7-17-38.2-3.3-52.5c15.9-16.5,40.6-4.6,44.5,17.1l0,0
			c0,21.1-3.3,57.6,19.2,66.7c9.3,4,22,2.3,26.9-8c4.9-10.8,0-24.5-2.2-34.8c-1.6-9.1-3.8-18.8,2.7-26.8c7.1-9.1,20.9-8.6,28.5,0
			c7.7,9.1,3.3,25.7,4.4,36.5c1.6,26.2,16.5,44.5,43.4,37.6c11.5-2.9,15.9-12,15.9-23.9c0-8-2.2-17.1,2.7-23.9
			c10.4-15.4,30.7-3.4,28.5,13.7c-3.8,20.5-8.8,41.6-4.9,62.7c-7.1,2.3-13.7,5.7-20.3,9.7C237.4,163.4,204.5,170.3,179.8,177.1z
			 M451.5,221.6c11.5,16.5,0.5,45-20.3,42.8c-19.8-1.7-39.5-16-55.4-27.4c-3.3-2.3-9.3,0.6-8.8,5.1c3.3,27.4-5.5,51.3-14.8,75.8
			c-6,14.8-9.9,29.6-3.3,45c7.1,16,19.2,28.5,25.8,45c9.3,24.5,8.2,53-4.4,75.8c-26.3,48.5-92.2,56.4-129,15.4
			c-18.7-20.5-25.2-49.6-19.8-77c3.8-20,15.4-34.8,25.2-51.3c9.9-16,9.3-31.4,2.7-48.5c-9.9-26.8-20.3-51.3-17-80.4
			c0.5-4.6-5.5-8-8.8-5.1c-15.9,12-35.1,25.7-55.4,27.4c-20.9,1.7-31.8-26.2-20.3-42.8c9.3-13.1,30.7-12,45-10.8
			c14.3,1.1,28,4.6,41.7,8.6c2.7,0.6,5.5-0.6,6.6-2.9c27.4-44.5,88.9-44.5,116.4,0c0.5,0.6,0.5,1.1,1.1,1.1c1.1,1.7,3.3,2.3,5.5,1.7
			c13.7-4,27.4-7.4,41.7-8.6C420.2,209.6,442.1,208.5,451.5,221.6z M537.1,91.6c-3.8,15.4-15.4,23.9-24.7,35.3
			c-12.1,14.8-5.5,37.6-17,51.9c-8.8,10.8-27.4,7.4-39.5,5.7c-14.8-1.7-29.1-6.8-43.9-10.3c-22.5-5.1-51-9.1-69.2,8.6
			c-6.6-4-13.2-7.4-20.3-9.7c3.3-18.2,0-37.1-3.8-54.7c-2.2-11.4-2.7-25.7,11.5-27.9c14.8-2.3,18.7,12,18.1,23.9
			c-0.5,10.8-1.1,22.2,8.8,27.9c10.4,6.3,28.5,5.7,37.9-2.3c9.3-8,11.5-21.7,12.1-33.6c0.5-14.8-4.9-37.1,13.7-41.6
			c12.6-3.4,23.1,7.4,23.1,20c0,8.6-2.7,17.7-4.4,26.2c-1.6,10.8-2.7,24.5,8.8,29.6c14.3,6.3,28-2.9,32.9-16.5
			c6-15.4,4.9-33.6,4.9-50.2l0,0c2.2-14.3,12.1-23.9,25.8-24.5C534.3,50.6,542,72.2,537.1,91.6z"/>
		<ellipse class="st0" cx="285.7" cy="270.1" rx="7.7" ry="12"/>
		<ellipse class="st0" cx="314.3" cy="270.1" rx="7.7" ry="12"/>
		<ellipse class="st0" cx="281.9" cy="492.4" rx="7.7" ry="8"/>
		<ellipse class="st0" cx="318.1" cy="492.4" rx="7.7" ry="8"/>
	</g>
</g>
</svg>
